<?xml version="1.0" encoding="utf-8"?>
<!-- Generator: Adobe Illustrator 25.2.0, SVG Export Plug-In . SVG Version: 6.00 Build 0)  -->
<svg version="1.1" id="Слой_1" xmlns="http://www.w3.org/2000/svg" xmlns:xlink="http://www.w3.org/1999/xlink" x="0px" y="0px"
	 viewBox="0 0 841.9 595.3" style="enable-background:new 0 0 841.9 595.3;" xml:space="preserve">
<style type="text/css">
	.st0{fill:#D01B50;}
	.st1{fill:#D01B4F;}
	.st2{fill:#FFFFFF;}
</style>
<g>
	<g>
		<path class="st0" d="M385.5,324.9c0-1.8,1.5-3.3,3.4-3.3c1.9,0,3.4,1.5,3.4,3.3c0,1.8-1.5,3.3-3.4,3.3
			C386.9,328.2,385.5,326.8,385.5,324.9z M391.2,324.9c0-1.3-1-2.4-2.4-2.4c-1.3,0-2.4,1-2.4,2.4c0,1.3,1,2.4,2.4,2.4
			C390.1,327.3,391.2,326.3,391.2,324.9z"/>
		<path class="st0" d="M393.5,324.9c0-1.8,1.5-3.3,3.4-3.3c1.3,0,2.2,0.7,2.6,1.2l-0.7,0.6c-0.3-0.4-0.9-0.9-1.9-0.9
			c-1.3,0-2.4,1-2.4,2.4c0,1.3,1,2.4,2.4,2.4c1,0,1.6-0.5,1.9-0.9l0.7,0.6c-0.5,0.6-1.4,1.2-2.6,1.2
			C395,328.2,393.5,326.8,393.5,324.9z"/>
		<path class="st0" d="M400.4,324.9c0-1.8,1.5-3.3,3.4-3.3c1.9,0,3.4,1.5,3.4,3.3c0,1.8-1.5,3.3-3.4,3.3
			C401.9,328.2,400.4,326.8,400.4,324.9z M406.1,324.9c0-1.3-1-2.4-2.4-2.4c-1.3,0-2.4,1-2.4,2.4c0,1.3,1,2.4,2.4,2.4
			C405.1,327.3,406.1,326.3,406.1,324.9z"/>
		<path class="st0" d="M408.9,328.1v-6.4h4.2v0.9h-3.2v1.5h1.6c1.2,0,2,0.9,2,2c0,1.1-0.9,2-2,2H408.9z M409.9,327.2h1.6
			c0.6,0,1-0.5,1-1c0-0.6-0.5-1-1-1h-1.6V327.2z"/>
		<path class="st0" d="M414.4,328.1l2.5-6.4h1.1l2.5,6.4h-1.1l-0.6-1.6H416l-0.6,1.6H414.4z M416.4,325.6h2.1l-1-2.7h0L416.4,325.6z
			"/>
		<path class="st0" d="M426.3,321.8v6.4h-1v-2.4H424l-1.5,2.4h-1.1l1.6-2.5c-0.8-0.3-1.3-1-1.3-1.9c0-1.1,0.9-2,2.1-2H426.3z
			 M425.3,324.8v-2.2h-1.6c-0.6,0-1.1,0.5-1.1,1.1c0,0.6,0.5,1.1,1.1,1.1H425.3z"/>
		<path class="st0" d="M432.5,327l0.7-0.6c0.3,0.4,0.9,0.9,1.9,0.9c1.2,0,2.1-0.8,2.3-2h-3v-0.9h3c-0.2-1.1-1.1-1.9-2.2-1.9
			c-1,0-1.5,0.5-1.9,0.9l-0.7-0.6c0.4-0.5,1.3-1.2,2.6-1.2c1.9,0,3.3,1.5,3.3,3.3c0,1.8-1.5,3.3-3.4,3.3
			C433.8,328.2,432.9,327.5,432.5,327z"/>
		<path class="st0" d="M440.2,328.1v-6.4h1v3.1l2.9-3.1h1.3l-2.5,2.6l2.6,3.7h-1.2l-2.1-3l-1,1.1v1.9H440.2z"/>
		<path class="st0" d="M446.2,324.9c0-1.8,1.5-3.3,3.4-3.3c1.9,0,3.4,1.5,3.4,3.3c0,1.8-1.5,3.3-3.4,3.3
			C447.7,328.2,446.2,326.8,446.2,324.9z M451.9,324.9c0-1.3-1-2.4-2.4-2.4c-1.3,0-2.4,1-2.4,2.4c0,1.3,1,2.4,2.4,2.4
			C450.9,327.3,451.9,326.3,451.9,324.9z"/>
		<path class="st0" d="M454.7,328.1v-6.4h1v2.7h3.1v-2.7h1v6.4h-1v-2.8h-3.1v2.8H454.7z"/>
		<path class="st0" d="M461.5,324.9c0-1.8,1.5-3.3,3.4-3.3c1.9,0,3.4,1.5,3.4,3.3c0,1.8-1.5,3.3-3.4,3.3
			C463,328.2,461.5,326.8,461.5,324.9z M467.3,324.9c0-1.3-1-2.4-2.4-2.4c-1.3,0-2.4,1-2.4,2.4c0,1.3,1,2.4,2.4,2.4
			C466.2,327.3,467.3,326.3,467.3,324.9z"/>
		<path class="st0" d="M470,328.1v-6.4h0.9l2.4,3.1h0l2.4-3.1h0.9v6.4h-1v-4.7h0l-2.3,2.9l-2.3-2.9h0v4.7H470z"/>
		<path class="st0" d="M478.8,328.1v-6.4h1v4.7h0l3.5-4.7h0.9v6.4h-1v-4.7h0l-3.5,4.7H478.8z"/>
		<path class="st0" d="M489.9,328.1v-2.5c-0.3,0.2-0.9,0.5-1.6,0.5c-1.4,0-2.2-0.9-2.2-2.4v-1.9h1v1.9c0,0.9,0.5,1.4,1.4,1.4
			c0.6,0,1.2-0.3,1.5-0.5v-2.8h1v6.4H489.9z"/>
		<path class="st0" d="M493,328.1v-6.4h4.5v0.9H494v1.7h2.8v0.9H494v1.9h3.6v0.9H493z"/>
		<path class="st0" d="M498.7,324.9c0-1.8,1.5-3.3,3.4-3.3c1.3,0,2.2,0.7,2.6,1.2l-0.7,0.6c-0.3-0.4-0.9-0.9-1.9-0.9
			c-1.3,0-2.4,1-2.4,2.4c0,1.3,1,2.4,2.4,2.4c1,0,1.6-0.5,1.9-0.9l0.7,0.6c-0.5,0.6-1.4,1.2-2.6,1.2
			C500.2,328.2,498.7,326.8,498.7,324.9z"/>
		<path class="st0" d="M506.2,328.1v-6.4h1v3.1l2.9-3.1h1.3l-2.5,2.6l2.6,3.7h-1.2l-2.1-3l-1,1.1v1.9H506.2z"/>
		<path class="st0" d="M512.1,328.1l2.5-6.4h1.1l2.5,6.4h-1.1l-0.6-1.6h-2.8l-0.6,1.6H512.1z M514.2,325.6h2.1l-1-2.7h0L514.2,325.6
			z"/>
		<path class="st0" d="M524.1,321.8v6.4h-1v-2.4h-1.3l-1.5,2.4h-1.1l1.6-2.5c-0.8-0.3-1.3-1-1.3-1.9c0-1.1,0.9-2,2.1-2H524.1z
			 M523.1,324.8v-2.2h-1.6c-0.6,0-1.1,0.5-1.1,1.1c0,0.6,0.5,1.1,1.1,1.1H523.1z"/>
		<path class="st0" d="M531,327.2l0.7-0.6c0.3,0.3,0.8,0.7,1.7,0.7c0.9,0,1.4-0.5,1.4-1c0-0.5-0.5-1-1.4-1h-0.8v-0.9h0.8
			c0.8,0,1.2-0.4,1.2-0.9c0-0.4-0.4-0.9-1.2-0.9c-0.7,0-1.2,0.4-1.5,0.7l-0.6-0.7c0.5-0.4,1.2-0.9,2.2-0.9c1.4,0,2.2,0.8,2.2,1.7
			c0,0.8-0.6,1.3-1,1.4c0.7,0.2,1.2,0.8,1.2,1.5c0,1-0.9,1.9-2.4,1.9C532.2,328.2,531.4,327.7,531,327.2z"/>
		<path class="st0" d="M537.1,324.9c0-1.8,1.5-3.3,3.4-3.3c1.9,0,3.4,1.5,3.4,3.3c0,1.8-1.5,3.3-3.4,3.3
			C538.5,328.2,537.1,326.8,537.1,324.9z M542.8,324.9c0-1.3-1-2.4-2.4-2.4c-1.3,0-2.4,1-2.4,2.4c0,1.3,1,2.4,2.4,2.4
			C541.8,327.3,542.8,326.3,542.8,324.9z"/>
		<path class="st0" d="M545.5,328.1v-6.4h1v2.7h3.1v-2.7h1v6.4h-1v-2.8h-3.1v2.8H545.5z"/>
		<path class="st0" d="M552,328.1l2.5-6.4h1.1l2.5,6.4h-1.1l-0.6-1.6h-2.8l-0.6,1.6H552z M554.1,325.6h2.1l-1-2.7h0L554.1,325.6z"/>
	</g>
	<g>
		<path class="st0" d="M389.2,278.8v-9.9h-3.5v-1.6h8.7v1.6h-3.5v9.9H389.2z"/>
		<path class="st0" d="M396.5,278.8v-11.5h8.2v1.6h-6.3v3.1h5v1.6h-5v3.5h6.5v1.6H396.5z"/>
		<path class="st0" d="M405.7,278.8l4.1-6l-3.8-5.5h2.2l2.8,4.2h0l2.8-4.2h2.1l-3.8,5.5l4.1,6h-2.2l-3.1-4.7h0l-3.1,4.7H405.7z"/>
		<path class="st0" d="M418.3,278.8v-11.5h1.8v4.9h5.7v-4.9h1.8v11.5h-1.8v-5h-5.7v5H418.3z"/>
		<path class="st0" d="M430.2,273c0-3.3,2.6-5.9,6.1-5.9c3.5,0,6.1,2.6,6.1,5.9c0,3.3-2.6,5.9-6.1,5.9
			C432.9,278.9,430.2,276.3,430.2,273z M440.6,273c0-2.4-1.9-4.3-4.3-4.3c-2.4,0-4.3,1.9-4.3,4.3c0,2.4,1.9,4.3,4.3,4.3
			C438.7,277.3,440.6,275.4,440.6,273z"/>
		<path class="st0" d="M445,278.8v-11.5h9.3v11.5h-1.8v-9.9h-5.7v9.9H445z"/>
		<path class="st0" d="M456.8,273c0-3.3,2.6-5.9,6.1-5.9c3.5,0,6.1,2.6,6.1,5.9c0,3.3-2.6,5.9-6.1,5.9
			C459.5,278.9,456.8,276.3,456.8,273z M467.2,273c0-2.4-1.9-4.3-4.3-4.3c-2.4,0-4.3,1.9-4.3,4.3c0,2.4,1.9,4.3,4.3,4.3
			C465.3,277.3,467.2,275.4,467.2,273z"/>
		<path class="st0" d="M472.6,267.2h7.7v11.5h-1.8v-9.9h-4.1l0,1.8c-0.2,6.8-1.5,8.2-3.7,8.2c-0.5,0-0.9-0.1-1.1-0.2V277
			c0.2,0.1,0.5,0.2,0.9,0.2c1.1,0,1.9-1,2.1-6.5L472.6,267.2z"/>
		<path class="st0" d="M483.6,278.8v-11.5h1.8v8.6h0l6.3-8.6h1.6v11.5h-1.8v-8.6h0l-6.3,8.6H483.6z"/>
		<path class="st0" d="M495.9,273c0-3.3,2.6-5.9,6.1-5.9c2.3,0,3.9,1.2,4.7,2.2l-1.3,1c-0.6-0.7-1.6-1.6-3.4-1.6
			c-2.4,0-4.3,1.9-4.3,4.3c0,2.4,1.9,4.3,4.3,4.3c1.8,0,2.8-0.9,3.5-1.6l1.3,1c-0.8,1-2.5,2.3-4.8,2.3
			C498.6,278.9,495.9,276.3,495.9,273z"/>
	</g>
	<g>
		<path class="st0" d="M385.8,312.5v-27.1h4.4l9.8,12.6h0.1l9.9-12.6h4.3v27.1h-4.8v-19.1h-0.2l-9.3,11.9l-9.3-11.9h-0.2v19.1H385.8
			z"/>
		<path class="st0" d="M418.6,299c0-7.8,6.2-14,14.5-14c8.2,0,14.5,6.2,14.5,14c0,7.8-6.2,14-14.5,14
			C424.9,313,418.6,306.7,418.6,299z M442.7,299c0-5.3-4.3-9.6-9.6-9.6c-5.3,0-9.6,4.3-9.6,9.6c0,5.3,4.3,9.6,9.6,9.6
			C438.4,308.6,442.7,304.3,442.7,299z"/>
		<path class="st0" d="M450.9,299c0-7.8,6.2-14,14.5-14c5.5,0,9.3,2.9,11.3,5.2l-3.3,2.9c-1.5-1.7-3.9-3.6-7.9-3.6
			c-5.4,0-9.6,4.3-9.6,9.6c0,5.3,4.2,9.6,9.6,9.6c4.1,0,6.5-2,8.1-3.8l3.4,2.9c-2,2.4-5.9,5.3-11.5,5.3
			C457.1,313,450.9,306.7,450.9,299z"/>
		<path class="st0" d="M481.6,312.5v-27.1h4.8v12.7l11.6-12.7h6l-10.3,11.2l11.1,15.9h-5.8l-8.5-12.3l-4,4.4v7.9H481.6z"/>
		<path class="st0" d="M509,312.5v-27.1h11.1c5.1,0,8.4,3.3,8.4,7.2c0,2.7-1.6,4.6-3.4,5.4c2,0.7,4.8,3,4.8,6.7
			c0,4.2-3.6,7.9-9.1,7.9H509z M513.8,296.3h6.2c2.2,0,3.6-1.4,3.6-3.4c0-2-1.4-3.4-3.6-3.4h-6.2V296.3z M513.8,308.4h6.8
			c2.5,0,4.3-1.8,4.3-4.1s-1.8-4.1-4.3-4.1h-6.8V308.4z"/>
		<path class="st0" d="M531.5,312.5l10.7-27.1h5.3l10.7,27.1h-5.1l-2.5-6.7h-11.5l-2.6,6.7H531.5z M540.7,301.6h8.3l-4.1-10.9h-0.1
			L540.7,301.6z"/>
	</g>
	<g>
		<polygon class="st0" points="283.8,291.8 283.8,292.5 292.9,285.3 292,285.3 		"/>
		<path class="st0" d="M369.3,298.5l-4.7-13.2h-0.8l4.7,13.3c-0.9,0.3-1.5,1.1-1.5,2c0,0.4,0.1,0.7,0.3,1l-3.9,3.1
			c0.2-2.8,0.4-5.6,0.6-8.3c0.9-0.3,1.5-1.1,1.5-2c0-1.1-0.9-2-1.9-2.1l-1.9-7.1h-0.7l2,7.2c-0.3,0.1-0.5,0.2-0.7,0.4l-5.3-3.8
			l0-3.7h-0.7l0,3.2l-4.4-3.2h-1.2l5.6,4.1l-0.2,19.4c-0.3,0-0.5,0.1-0.8,0.3l-2.9-3.4l-9.4-20.4h-0.8l8.5,18.3l-12.1-14.2v-4.1
			h-0.7v3.2l-2.7-3.2h-1.2l-8.7,20.9l-9.5-1.3c-0.1-1.1-1-1.9-2.1-1.9c-0.5-3.8-1.1-8.7-1.7-14l7.5-3.6h-1.7l-5.9,2.9
			c-0.1-0.9-0.2-1.9-0.4-2.9h-0.7c0.1,1.1,0.3,2.1,0.4,3.2l-21,10.2l-6.1-1.5v0.7l5,1.3l-5,2.4v0.8l6.1-3l21.4,5.4
			c0,0.1,0,0.2,0,0.2c0,0.4,0.1,0.8,0.4,1.2l-11.1,12.3l-16.8-8.5v0.8l16.2,8.2l-8.3,9.1h1l8-8.8l13.6,6.8c-0.1,0.2-0.2,0.5-0.2,0.8
			l-9.4,1.2h5.9l3.5-0.4c0.1,0.2,0.1,0.3,0.2,0.4h3.6l0,0c0.2-0.3,0.3-0.7,0.3-1c0-0.6-0.2-1.1-0.6-1.4l2.3-5.5
			c1.2,2.6,2.5,5.4,3.8,8.1h0.8c-1.4-2.9-2.8-6-4.2-9l5.1-12.2l12.2,1.7v19.4h0.7v-19.3l15.5,2.2l0.4,0.9c0,0,0,0,0,0l0.4,0.9
			c-3,4.8-6.5,10.3-9.8,15.4h0.9c2.5-4,5.6-8.8,9.3-14.6l0.9,1.9l0.1,12.8h0.7l-0.1-11.2l3.7,8.1c-0.7,0.4-1.1,1-1.1,1.8
			c0,0.5,0.2,0.9,0.4,1.3h3.4c0.3-0.3,0.4-0.8,0.4-1.3c0-0.7-0.3-1.2-0.8-1.6l6.5-22.6c1.1,0,2-1,2-2.1
			C371.2,299.5,370.3,298.6,369.3,298.5z M311.5,304.1l-20.5-5.2l20-9.7c0.7,6,1.4,11.1,1.7,13.8
			C312.2,303.2,311.8,303.6,311.5,304.1z M317.2,325.2c-0.3-0.1-0.6-0.2-0.9-0.2c-0.6,0-1.1,0.2-1.5,0.6l-13.5-6.8l10.9-12.1
			c0.4,0.3,0.8,0.4,1.2,0.4c0.2,0,0.3,0,0.5-0.1c1.2,2.6,3.3,7.1,5.7,12.1L317.2,325.2z M320,318.3c-1.9-4.1-3.8-8.1-5.4-11.5
			c0.4-0.3,0.7-0.7,0.9-1.2l9.3,1.3L320,318.3z M337.7,308l-11.9-1.7l8.5-20.6l3.4,4V308z M338.4,308.1v-17.6l13.2,15.6l1.9,4.1
			L338.4,308.1z M354.3,310l-0.9-1.9l1.2,1.4C354.4,309.7,354.3,309.8,354.3,310z M355.6,312.9c0.1,0,0.2,0.1,0.3,0.1l0,0.6
			L355.6,312.9z M356.8,289.9l4.8,3.5c-0.2,0.3-0.3,0.7-0.3,1.1c0,1.1,0.9,2,2,2.1c-0.2,3.3-0.4,6.2-0.6,8.8l-5,4
			c-0.3-0.3-0.6-0.5-1-0.5L356.8,289.9z M361.4,324.8c-0.1,0-0.2,0-0.3,0l-4.4-9.6l0-2.3c0.9-0.2,1.6-1,1.6-2.1
			c0-0.3-0.1-0.6-0.2-0.9l4.5-3.6C361.8,316.9,361.5,322.2,361.4,324.8C361.4,324.8,361.4,324.8,361.4,324.8z M362.1,324.7
			c0.2-3.7,0.7-11.3,1.2-19l4.4-3.6c0.2,0.2,0.5,0.3,0.7,0.4L362.1,324.7z"/>
	</g>
	<rect x="305.3" y="267.2" class="st1" width="73.9" height="11.6"/>
	<g>
		<path class="st2" d="M317.3,272.9c0-1.7,1.4-3.1,3.2-3.1c1.2,0,2,0.6,2.5,1.1l-0.7,0.6c-0.3-0.4-0.8-0.8-1.7-0.8
			c-1.2,0-2.1,0.9-2.1,2.1c0,1.2,0.9,2.1,2.1,2.1c0.9,0,1.4-0.4,1.8-0.8l0.7,0.6c-0.4,0.5-1.3,1.2-2.5,1.2
			C318.7,276,317.3,274.6,317.3,272.9z"/>
		<path class="st2" d="M328.8,274.9h0.8v2.2h-1.1v-1.3h-4v1.3h-1.1v-2.2h0.3c0.4-0.4,1-1.5,1-3.2l0-1.8h3.9V274.9z M327.7,274.9v-4
			h-1.8l0,0.8c0,1.7-0.5,2.8-0.9,3.2H327.7z"/>
		<path class="st2" d="M330.9,275.9V270h4.3v1H332v1.4h2.5v1H332v1.6h3.3v1H330.9z"/>
		<path class="st2" d="M337.6,270h4.1v5.9h-1.1v-5h-2l0,0.8c-0.1,3.5-0.8,4.2-1.9,4.2c-0.3,0-0.5-0.1-0.6-0.1v-1
			c0.1,0,0.3,0.1,0.4,0.1c0.5,0,1-0.5,1-3.2L337.6,270z"/>
		<path class="st2" d="M342.8,275.9l2.4-5.9h1.2l2.3,5.9h-1.1l-0.6-1.5h-2.5l-0.6,1.5H342.8z M344.9,273.5h1.8l-0.9-2.4h0
			L344.9,273.5z"/>
		<path class="st2" d="M349.9,275.9V270h1.1v2.4h2.8V270h1.1v5.9h-1.1v-2.5H351v2.5H349.9z"/>
		<path class="st2" d="M356.4,272.9c0-1.7,1.4-3.1,3.2-3.1c1.8,0,3.2,1.4,3.2,3.1c0,1.7-1.4,3.1-3.2,3.1
			C357.8,276,356.4,274.6,356.4,272.9z M361.7,272.9c0-1.2-0.9-2.1-2.1-2.1c-1.2,0-2.1,0.9-2.1,2.1c0,1.2,0.9,2.1,2.1,2.1
			C360.7,275,361.7,274.1,361.7,272.9z"/>
		<path class="st2" d="M368.8,275.9V270h2.4c1.1,0,1.8,0.7,1.8,1.6c0,0.6-0.4,1-0.8,1.2c0.4,0.2,1.1,0.7,1.1,1.5
			c0,0.9-0.8,1.7-2,1.7H368.8z M369.8,272.3h1.3c0.5,0,0.8-0.3,0.8-0.7c0-0.4-0.3-0.8-0.8-0.8h-1.3V272.3z M369.8,275h1.5
			c0.6,0,0.9-0.4,0.9-0.9c0-0.5-0.4-0.9-0.9-0.9h-1.5V275z"/>
	</g>
	<g>
		<polygon class="st1" points="303.3,267.2 302.7,267.2 300.9,267.2 300.5,267.2 299.4,267.2 299,267.2 298.3,267.2 298.3,278.8 
			299,278.8 299.4,278.8 300.5,278.8 300.9,278.8 302.7,278.8 303.3,278.8 314.5,278.8 314.5,267.2 		"/>
		<rect x="295" y="267.2" class="st1" width="2.1" height="11.6"/>
		<rect x="289.9" y="267.2" class="st1" width="0.6" height="11.6"/>
		<rect x="293" y="267.2" class="st1" width="0.3" height="11.6"/>
		<rect x="291.5" y="267.2" class="st1" width="0.1" height="11.6"/>
		<rect x="285.3" y="267.2" class="st1" width="1.4" height="11.6"/>
		<rect x="283.6" y="267.2" class="st1" width="0.3" height="11.6"/>
		<rect x="284.3" y="267.2" class="st1" width="0.1" height="11.6"/>
	</g>
</g>
</svg>
