<?xml version="1.0" encoding="utf-8"?>
<!-- Generator: Adobe Illustrator 25.2.0, SVG Export Plug-In . SVG Version: 6.00 Build 0)  -->
<svg version="1.1" id="Слой_1" xmlns="http://www.w3.org/2000/svg" xmlns:xlink="http://www.w3.org/1999/xlink" x="0px" y="0px"
	 viewBox="0 0 841.9 595.3" style="enable-background:new 0 0 841.9 595.3;" xml:space="preserve">
<style type="text/css">
	.st0{fill:#D01B50;}
</style>
<g>
	<path class="st0" d="M413.4,296.5v-9.7H410v-1.6h8.5v1.6h-3.4v9.7H413.4z"/>
	<path class="st0" d="M420.5,296.5v-11.3h8v1.6h-6.2v3h4.9v1.6h-4.9v3.4h6.4v1.6H420.5z"/>
	<path class="st0" d="M429.5,296.5l4-5.9l-3.7-5.4h2.1l2.7,4.1h0l2.7-4.1h2.1l-3.7,5.4l4,5.9h-2.1l-3-4.6h0l-3,4.6H429.5z"/>
	<path class="st0" d="M441.8,296.5v-11.3h1.8v4.8h5.6v-4.8h1.8v11.3h-1.8v-4.9h-5.6v4.9H441.8z"/>
	<path class="st0" d="M453.4,290.8c0-3.2,2.6-5.8,6-5.8c3.4,0,6,2.6,6,5.8c0,3.2-2.6,5.8-6,5.8C456,296.6,453.4,294.1,453.4,290.8z
		 M463.6,290.8c0-2.3-1.9-4.2-4.2-4.2c-2.3,0-4.2,1.9-4.2,4.2c0,2.3,1.9,4.2,4.2,4.2C461.7,295,463.6,293.2,463.6,290.8z"/>
	<path class="st0" d="M467.9,296.5v-11.3h9.1v11.3h-1.8v-9.7h-5.6v9.7H467.9z"/>
	<path class="st0" d="M479.5,290.8c0-3.2,2.6-5.8,6-5.8c3.4,0,6,2.6,6,5.8c0,3.2-2.6,5.8-6,5.8C482,296.6,479.5,294.1,479.5,290.8z
		 M489.6,290.8c0-2.3-1.9-4.2-4.2-4.2c-2.3,0-4.2,1.9-4.2,4.2c0,2.3,1.9,4.2,4.2,4.2C487.8,295,489.6,293.2,489.6,290.8z"/>
	<path class="st0" d="M494.9,285.2h7.5v11.3h-1.8v-9.7h-4l0,1.8c-0.2,6.6-1.5,8.1-3.6,8.1c-0.5,0-0.9-0.1-1-0.2v-1.6
		c0.2,0.1,0.5,0.2,0.9,0.2c1,0,1.9-1,2-6.4L494.9,285.2z"/>
	<path class="st0" d="M505.6,296.5v-11.3h1.8v8.4h0l6.2-8.4h1.6v11.3h-1.8v-8.4h0l-6.2,8.4H505.6z"/>
	<path class="st0" d="M517.7,290.8c0-3.2,2.6-5.8,6-5.8c2.2,0,3.8,1.2,4.6,2.2l-1.2,1c-0.6-0.7-1.6-1.6-3.4-1.6
		c-2.3,0-4.2,1.9-4.2,4.2c0,2.3,1.9,4.2,4.2,4.2c1.7,0,2.8-0.9,3.4-1.6l1.2,1c-0.8,1-2.4,2.2-4.7,2.2
		C520.3,296.6,517.7,294.1,517.7,290.8z"/>
	<path class="st0" d="M410,329.5V303h4.4l9.6,12.3h0.1l9.6-12.3h4.2v26.5h-4.7v-18.7H433l-9.1,11.6l-9.1-11.6h-0.2v18.7H410z"/>
	<path class="st0" d="M442.1,316.2c0-7.6,6.1-13.7,14.2-13.7s14.2,6.1,14.2,13.7c0,7.6-6.1,13.7-14.2,13.7S442.1,323.8,442.1,316.2z
		 M465.6,316.2c0-5.2-4.2-9.4-9.4-9.4c-5.2,0-9.4,4.2-9.4,9.4c0,5.2,4.2,9.4,9.4,9.4C461.5,325.6,465.6,321.5,465.6,316.2z"/>
	<path class="st0" d="M473.6,316.2c0-7.6,6.1-13.7,14.2-13.7c5.4,0,9.1,2.8,11,5.1l-3.3,2.8c-1.5-1.6-3.8-3.6-7.8-3.6
		c-5.3,0-9.4,4.2-9.4,9.4c0,5.2,4.1,9.4,9.4,9.4c4,0,6.4-1.9,7.9-3.7l3.3,2.8c-2,2.3-5.8,5.2-11.2,5.2
		C479.7,329.9,473.6,323.8,473.6,316.2z"/>
	<path class="st0" d="M503.6,329.5V303h4.7v12.4l11.3-12.4h5.9l-10.1,11l10.8,15.5h-5.7l-8.3-12l-3.9,4.3v7.7H503.6z"/>
	<path class="st0" d="M530.4,329.5V303h10.9c5,0,8.2,3.2,8.2,7c0,2.6-1.6,4.5-3.4,5.3c1.9,0.7,4.7,3,4.7,6.5c0,4.1-3.6,7.7-8.9,7.7
		H530.4z M535.2,313.7h6c2.1,0,3.5-1.4,3.5-3.3c0-2-1.4-3.4-3.5-3.4h-6V313.7z M535.2,325.5h6.7c2.5,0,4.2-1.8,4.2-4
		c0-2.3-1.7-4-4.2-4h-6.7V325.5z"/>
	<path class="st0" d="M552.5,329.5L563,303h5.2l10.4,26.5h-5l-2.5-6.5h-11.3l-2.5,6.5H552.5z M561.5,318.8h8.1l-4-10.6h-0.1
		L561.5,318.8z"/>
</g>
<g>
	<polygon class="st0" points="304.7,291.8 304.7,292.6 314.3,285 313.3,285 	"/>
	<path class="st0" d="M394.2,298.9l-4.9-13.8h-0.8l4.9,13.9c-0.9,0.3-1.6,1.1-1.6,2.1c0,0.4,0.1,0.8,0.3,1.1l-4.1,3.3
		c0.2-3,0.4-5.9,0.6-8.7c0.9-0.3,1.6-1.1,1.6-2.1c0-1.2-0.9-2.1-2-2.2l-2-7.5h-0.8l2.1,7.5c-0.3,0.1-0.5,0.2-0.8,0.4l-5.5-4l0-3.9
		h-0.8l0,3.3l-4.6-3.3h-1.3l5.9,4.3l-0.2,20.4c-0.3,0-0.6,0.1-0.8,0.3l-3-3.5l-9.9-21.4h-0.8l8.9,19.2l-12.7-14.9V285h-0.8v3.4
		l-2.9-3.4H357l-9.1,21.9l-10-1.4c-0.1-1.1-1-2-2.2-2c-0.5-4-1.1-9.1-1.8-14.7l7.8-3.8H340l-6.2,3c-0.1-1-0.2-2-0.4-3h-0.8
		c0.1,1.1,0.3,2.2,0.4,3.3l-22,10.7l-6.3-1.6v0.8l5.3,1.3l-5.3,2.6v0.8l6.4-3.1l22.4,5.6c0,0.1,0,0.2,0,0.3c0,0.5,0.1,0.9,0.4,1.2
		l-11.6,12.8l-17.6-8.9v0.8l17,8.6l-8.7,9.6h1l8.3-9.2l14.2,7.2c-0.1,0.3-0.2,0.5-0.2,0.8l-9.8,1.2h6.2l3.7-0.5
		c0.1,0.2,0.1,0.3,0.2,0.5h3.8l0,0c0.2-0.3,0.3-0.7,0.3-1.1c0-0.6-0.2-1.1-0.6-1.5l2.4-5.8c1.3,2.7,2.7,5.6,4,8.5h0.8
		c-1.4-3.1-2.9-6.3-4.4-9.4l5.3-12.8l12.8,1.8v20.4h0.8v-20.3l16.2,2.3l0.4,0.9c0,0,0,0,0,0l0.4,0.9c-3.2,5.1-6.8,10.8-10.2,16.2
		h0.9c2.7-4.2,5.9-9.2,9.7-15.3l0.9,2l0.1,13.4h0.8l-0.1-11.7l3.9,8.4c-0.7,0.4-1.2,1.1-1.2,1.9c0,0.5,0.2,0.9,0.4,1.3h3.5
		c0.3-0.4,0.4-0.8,0.4-1.3c0-0.7-0.3-1.3-0.8-1.7l6.8-23.7c1.2-0.1,2.1-1,2.1-2.2C396.3,299.9,395.4,298.9,394.2,298.9z
		 M333.7,304.7l-21.5-5.4l21-10.1c0.8,6.3,1.4,11.7,1.8,14.4C334.4,303.8,334,304.2,333.7,304.7z M339.6,326.8
		c-0.3-0.1-0.6-0.2-1-0.2c-0.6,0-1.2,0.3-1.6,0.7l-14.1-7.1l11.4-12.7c0.4,0.3,0.8,0.4,1.3,0.4c0.2,0,0.4,0,0.5-0.1
		c1.3,2.7,3.5,7.4,6,12.7L339.6,326.8z M342.6,319.6c-2-4.3-4-8.5-5.7-12.1c0.4-0.3,0.7-0.7,0.9-1.3l9.8,1.4L342.6,319.6z
		 M361.2,308.8l-12.5-1.8l9-21.6l3.5,4.2V308.8z M361.9,308.9v-18.4l13.9,16.3l2,4.3L361.9,308.9z M378.5,311l-0.9-2l1.2,1.5
		C378.7,310.6,378.6,310.8,378.5,311z M379.9,314c0.1,0,0.2,0.1,0.3,0.1l0,0.7L379.9,314z M381.2,289.9l5,3.6
		c-0.2,0.3-0.3,0.7-0.3,1.2c0,1.2,0.9,2.1,2.1,2.2c-0.2,3.4-0.5,6.5-0.6,9.2l-5.2,4.2c-0.3-0.3-0.6-0.5-1-0.6L381.2,289.9z
		 M386,326.4c-0.1,0-0.2,0-0.3,0l-4.6-10.1l0-2.4c1-0.2,1.7-1.1,1.7-2.2c0-0.3-0.1-0.7-0.2-1l4.7-3.8
		C386.5,318.2,386.1,323.7,386,326.4C386,326.4,386,326.4,386,326.4z M386.8,326.4c0.2-3.8,0.7-11.8,1.3-19.9l4.7-3.7
		c0.2,0.2,0.5,0.3,0.8,0.4L386.8,326.4z"/>
</g>
<g>
	<path class="st0" d="M304.7,271.5v-7.9h6.3v7.9h-1.2v-6.7h-3.9v6.7H304.7z"/>
	<path class="st0" d="M313.4,271.5v-7.9h3.1c1.5,0,2.6,1.1,2.6,2.5s-1.1,2.5-2.6,2.5h-1.9v2.8H313.4z M314.6,267.5h1.9
		c0.8,0,1.4-0.6,1.4-1.4s-0.6-1.4-1.4-1.4h-1.9V267.5z"/>
	<path class="st0" d="M320.3,267.5c0-2.2,1.8-4,4.2-4c2.4,0,4.2,1.8,4.2,4c0,2.2-1.8,4-4.2,4C322.1,271.6,320.3,269.8,320.3,267.5z
		 M327.3,267.5c0-1.6-1.3-2.9-2.9-2.9c-1.6,0-2.9,1.3-2.9,2.9c0,1.6,1.3,2.9,2.9,2.9C326.1,270.5,327.3,269.2,327.3,267.5z"/>
	<path class="st0" d="M330.4,271.5v-7.9h1.2v5.8h0l4.3-5.8h1.1v7.9h-1.2v-5.8h0l-4.3,5.8H330.4z"/>
	<path class="st0" d="M338.6,270.3l0.8-0.8c0.4,0.4,1,0.9,2.1,0.9c1.1,0,1.7-0.6,1.7-1.3c0-0.6-0.6-1.3-1.7-1.3h-1v-1.1h1
		c1,0,1.5-0.5,1.5-1.1c0-0.6-0.5-1.1-1.5-1.1c-0.8,0-1.5,0.4-1.9,0.8l-0.8-0.8c0.6-0.6,1.5-1.1,2.7-1.1c1.7,0,2.7,1,2.7,2.1
		c0,0.9-0.7,1.5-1.2,1.7c0.9,0.3,1.5,1,1.5,1.9c0,1.2-1.1,2.4-3,2.4C340.1,271.6,339.1,270.9,338.6,270.3z"/>
	<path class="st0" d="M346.3,271.5v-7.9h3.1c1.4,0,2.4,1,2.4,2.1c0,0.8-0.5,1.3-1,1.6c0.6,0.2,1.4,0.9,1.4,1.9
		c0,1.2-1.1,2.3-2.6,2.3H346.3z M347.6,266.8h1.9c0.7,0,1.1-0.4,1.1-1.1s-0.4-1.1-1.1-1.1h-1.9V266.8z M347.6,270.4h2.1
		c0.8,0,1.3-0.6,1.3-1.3s-0.6-1.3-1.3-1.3h-2.1V270.4z"/>
	<path class="st0" d="M353.6,267.5c0-2.2,1.8-4,4.2-4c2.4,0,4.2,1.8,4.2,4c0,2.2-1.8,4-4.2,4C355.4,271.6,353.6,269.8,353.6,267.5z
		 M360.6,267.5c0-1.6-1.3-2.9-2.9-2.9c-1.6,0-2.9,1.3-2.9,2.9c0,1.6,1.3,2.9,2.9,2.9C359.3,270.5,360.6,269.2,360.6,267.5z"/>
	<path class="st0" d="M369.5,270.3h1.1v2.8h-1.2v-1.7h-5.6v1.7h-1.2v-2.8h0.4c0.6-0.5,1.3-2.1,1.3-4.4l0.1-2.4h5.1V270.3z
		 M368.2,270.3v-5.6h-2.6l0,1.2c-0.1,2.3-0.7,3.9-1.2,4.4H368.2z"/>
	<path class="st0" d="M371.5,267.5c0-2.2,1.8-4,4.2-4c1.6,0,2.7,0.8,3.2,1.5l-0.9,0.7c-0.4-0.5-1.1-1.1-2.3-1.1
		c-1.6,0-2.9,1.3-2.9,2.9c0,1.6,1.3,2.9,2.9,2.9c1.2,0,1.9-0.6,2.4-1.1l0.9,0.7c-0.6,0.7-1.7,1.5-3.3,1.5
		C373.3,271.6,371.5,269.8,371.5,267.5z"/>
	<path class="st0" d="M382,271.5v-6.7h-2.4v-1.1h6v1.1h-2.4v6.7H382z"/>
	<path class="st0" d="M387,271.5v-7.9h3.1c1.4,0,2.4,1,2.4,2.1c0,0.8-0.5,1.3-1,1.6c0.6,0.2,1.4,0.9,1.4,1.9c0,1.2-1.1,2.3-2.6,2.3
		H387z M388.2,266.8h1.9c0.7,0,1.1-0.4,1.1-1.1s-0.4-1.1-1.1-1.1h-1.9V266.8z M388.2,270.4h2.1c0.8,0,1.3-0.6,1.3-1.3
		s-0.6-1.3-1.3-1.3h-2.1V270.4z"/>
	<path class="st0" d="M394.2,267.5c0-2.2,1.8-4,4.2-4c2.4,0,4.2,1.8,4.2,4c0,2.2-1.8,4-4.2,4C396,271.6,394.2,269.8,394.2,267.5z
		 M401.3,267.5c0-1.6-1.3-2.9-2.9-2.9s-2.9,1.3-2.9,2.9c0,1.6,1.3,2.9,2.9,2.9S401.3,269.2,401.3,267.5z"/>
	<path class="st0" d="M408,271.5v-7.9h3.1c1.5,0,2.6,1.1,2.6,2.5s-1.1,2.5-2.6,2.5h-1.9v2.8H408z M409.3,267.5h1.9
		c0.8,0,1.4-0.6,1.4-1.4s-0.6-1.4-1.4-1.4h-1.9V267.5z"/>
	<path class="st0" d="M414,271.5l3.1-7.9h1.3l3.1,7.9h-1.3l-0.8-2h-3.5l-0.8,2H414z M416.5,268.3h2.6l-1.3-3.3h0L416.5,268.3z"/>
	<path class="st0" d="M422.1,270.3l0.8-0.8c0.4,0.4,1,0.9,2.1,0.9c1.1,0,1.7-0.6,1.7-1.3c0-0.6-0.6-1.3-1.7-1.3h-1v-1.1h1
		c1,0,1.5-0.5,1.5-1.1c0-0.6-0.5-1.1-1.5-1.1c-0.8,0-1.5,0.4-1.9,0.8l-0.8-0.8c0.6-0.6,1.5-1.1,2.7-1.1c1.7,0,2.7,1,2.7,2.1
		c0,0.9-0.7,1.5-1.2,1.7c0.9,0.3,1.5,1,1.5,1.9c0,1.2-1.1,2.4-3,2.4C423.6,271.6,422.6,270.9,422.1,270.3z"/>
	<path class="st0" d="M429.8,271.5v-7.9h1.1l3,3.8h0l3-3.8h1.1v7.9h-1.2v-5.8h0l-2.8,3.6l-2.8-3.6h0v5.8H429.8z"/>
	<path class="st0" d="M440.3,271.5v-7.9h5.6v1.1h-4.3v2.1h3.4v1.1h-3.4v2.4h4.4v1.1H440.3z"/>
	<path class="st0" d="M457.1,273.2v-1.7h-9.3v-7.9h1.2v6.7h2.9v-6.7h1.2v6.7h2.9v-6.7h1.2v6.7h1.1v2.8H457.1z"/>
	<path class="st0" d="M459.9,271.5v-7.9h5.6v1.1h-4.3v2.1h3.4v1.1h-3.4v2.4h4.4v1.1H459.9z"/>
	<path class="st0" d="M467.3,271.5v-7.9h1.2v3.3h3.9v-3.3h1.2v7.9h-1.2V268h-3.9v3.4H467.3z"/>
	<path class="st0" d="M475.5,267.5c0-2.2,1.8-4,4.2-4s4.2,1.8,4.2,4c0,2.2-1.8,4-4.2,4S475.5,269.8,475.5,267.5z M482.6,267.5
		c0-1.6-1.3-2.9-2.9-2.9c-1.6,0-2.9,1.3-2.9,2.9c0,1.6,1.3,2.9,2.9,2.9C481.3,270.5,482.6,269.2,482.6,267.5z"/>
	<path class="st0" d="M489,271.5v-7.9h1.2v3.3h3.9v-3.3h1.2v7.9h-1.2V268h-3.9v3.4H489z"/>
	<path class="st0" d="M496.7,271.5l3.1-7.9h1.3l3.1,7.9h-1.3l-0.8-2h-3.5l-0.8,2H496.7z M499.2,268.3h2.6l-1.3-3.3h0L499.2,268.3z"
		/>
	<path class="st0" d="M509.1,271.5v-7.9h6.3v7.9h-1.2v-6.7h-3.9v6.7H509.1z"/>
	<path class="st0" d="M518.9,263.6h5.2v7.9h-1.2v-6.7h-2.8l0,1.2c-0.1,4.6-1,5.6-2.5,5.6c-0.3,0-0.6-0.1-0.7-0.2v-1.1
		c0.1,0,0.4,0.1,0.6,0.1c0.7,0,1.3-0.7,1.4-4.4L518.9,263.6z"/>
	<path class="st0" d="M525.9,267.5c0-2.2,1.8-4,4.2-4c2.4,0,4.2,1.8,4.2,4c0,2.2-1.8,4-4.2,4C527.7,271.6,525.9,269.8,525.9,267.5z
		 M533,267.5c0-1.6-1.3-2.9-2.9-2.9c-1.6,0-2.9,1.3-2.9,2.9c0,1.6,1.3,2.9,2.9,2.9C531.7,270.5,533,269.2,533,267.5z"/>
	<path class="st0" d="M545.4,273.2v-1.7h-9.3v-7.9h1.2v6.7h2.9v-6.7h1.2v6.7h2.9v-6.7h1.2v6.7h1.1v2.8H545.4z"/>
	<path class="st0" d="M547.2,271.5l3.1-7.9h1.3l3.1,7.9h-1.3l-0.8-2h-3.5l-0.8,2H547.2z M549.7,268.3h2.6L551,265h0L549.7,268.3z"/>
	<path class="st0" d="M562.3,270.3h1.1v2.8h-1.2v-1.7h-5.6v1.7h-1.2v-2.8h0.4c0.6-0.5,1.3-2.1,1.3-4.4l0.1-2.4h5.1V270.3z
		 M561,270.3v-5.6h-2.6l0,1.2c-0.1,2.3-0.7,3.9-1.2,4.4H561z"/>
	<path class="st0" d="M564.9,271.5v-7.9h1.2v3.8l3.5-3.8h1.6l-3,3.3l3.3,4.6H570l-2.6-3.7l-1.2,1.3v2.4H564.9z"/>
	<path class="st0" d="M572.9,271.5v-7.9h5.6v1.1h-4.3v2.1h3.4v1.1h-3.4v2.4h4.4v1.1H572.9z"/>
</g>
</svg>
