<?xml version="1.0" encoding="utf-8"?>
<!-- Generator: Adobe Illustrator 25.2.0, SVG Export Plug-In . SVG Version: 6.00 Build 0)  -->
<svg version="1.1" id="Слой_1" xmlns="http://www.w3.org/2000/svg" xmlns:xlink="http://www.w3.org/1999/xlink" x="0px" y="0px"
	 viewBox="0 0 841.9 595.3" style="enable-background:new 0 0 841.9 595.3;" xml:space="preserve">
<style type="text/css">
	.st0{fill:#D01B50;}
</style>
<g>
	<g>
		<path class="st0" d="M413.4,295.7V286H410v-1.6h8.5v1.6h-3.4v9.7H413.4z"/>
		<path class="st0" d="M420.5,295.7v-11.3h8v1.6h-6.2v3h4.9v1.6h-4.9v3.4h6.4v1.6H420.5z"/>
		<path class="st0" d="M429.5,295.7l4-5.9l-3.7-5.4h2.1l2.7,4.1h0l2.7-4.1h2.1l-3.7,5.4l4,5.9h-2.1l-3-4.6h0l-3,4.6H429.5z"/>
		<path class="st0" d="M441.8,295.7v-11.3h1.8v4.8h5.6v-4.8h1.8v11.3h-1.8v-4.9h-5.6v4.9H441.8z"/>
		<path class="st0" d="M453.4,290c0-3.2,2.6-5.8,6-5.8c3.4,0,6,2.6,6,5.8c0,3.2-2.6,5.8-6,5.8C456,295.8,453.4,293.2,453.4,290z
			 M463.6,290c0-2.3-1.9-4.2-4.2-4.2c-2.3,0-4.2,1.9-4.2,4.2c0,2.3,1.9,4.2,4.2,4.2C461.7,294.2,463.6,292.3,463.6,290z"/>
		<path class="st0" d="M467.9,295.7v-11.3h9.1v11.3h-1.8V286h-5.6v9.7H467.9z"/>
		<path class="st0" d="M479.5,290c0-3.2,2.6-5.8,6-5.8c3.4,0,6,2.6,6,5.8c0,3.2-2.6,5.8-6,5.8C482,295.8,479.5,293.2,479.5,290z
			 M489.6,290c0-2.3-1.9-4.2-4.2-4.2c-2.3,0-4.2,1.9-4.2,4.2c0,2.3,1.9,4.2,4.2,4.2C487.8,294.2,489.6,292.3,489.6,290z"/>
		<path class="st0" d="M494.9,284.4h7.5v11.3h-1.8V286h-4l0,1.8c-0.2,6.6-1.5,8.1-3.6,8.1c-0.5,0-0.9-0.1-1-0.2V294
			c0.2,0.1,0.5,0.2,0.9,0.2c1,0,1.9-1,2-6.4L494.9,284.4z"/>
		<path class="st0" d="M505.6,295.7v-11.3h1.8v8.4h0l6.2-8.4h1.6v11.3h-1.8v-8.4h0l-6.2,8.4H505.6z"/>
		<path class="st0" d="M517.7,290c0-3.2,2.6-5.8,6-5.8c2.2,0,3.8,1.2,4.6,2.2l-1.2,1c-0.6-0.7-1.6-1.6-3.4-1.6
			c-2.3,0-4.2,1.9-4.2,4.2c0,2.3,1.9,4.2,4.2,4.2c1.7,0,2.8-0.9,3.4-1.6l1.2,1c-0.8,1-2.4,2.2-4.7,2.2
			C520.3,295.8,517.7,293.2,517.7,290z"/>
		<path class="st0" d="M410,328.7v-26.5h4.4l9.6,12.3h0.1l9.6-12.3h4.2v26.5h-4.7V310H433l-9.1,11.6l-9.1-11.6h-0.2v18.7H410z"/>
		<path class="st0" d="M442.1,315.4c0-7.6,6.1-13.7,14.2-13.7c8.1,0,14.2,6.1,14.2,13.7c0,7.6-6.1,13.7-14.2,13.7
			C448.2,329.1,442.1,323,442.1,315.4z M465.6,315.4c0-5.2-4.2-9.4-9.4-9.4c-5.2,0-9.4,4.2-9.4,9.4c0,5.2,4.2,9.4,9.4,9.4
			C461.5,324.8,465.6,320.6,465.6,315.4z"/>
		<path class="st0" d="M473.6,315.4c0-7.6,6.1-13.7,14.2-13.7c5.4,0,9.1,2.8,11,5.1l-3.3,2.8c-1.5-1.6-3.8-3.6-7.8-3.6
			c-5.3,0-9.4,4.2-9.4,9.4c0,5.2,4.1,9.4,9.4,9.4c4,0,6.4-1.9,7.9-3.7l3.3,2.8c-2,2.3-5.8,5.2-11.2,5.2
			C479.7,329.1,473.6,323,473.6,315.4z"/>
		<path class="st0" d="M503.6,328.7v-26.5h4.7v12.4l11.3-12.4h5.9l-10.1,11l10.8,15.5h-5.7l-8.3-12l-3.9,4.3v7.7H503.6z"/>
		<path class="st0" d="M530.4,328.7v-26.5h10.9c5,0,8.2,3.2,8.2,7c0,2.6-1.6,4.5-3.4,5.3c1.9,0.7,4.7,3,4.7,6.5
			c0,4.1-3.6,7.7-8.9,7.7H530.4z M535.2,312.8h6c2.1,0,3.5-1.4,3.5-3.3c0-2-1.4-3.4-3.5-3.4h-6V312.8z M535.2,324.7h6.7
			c2.5,0,4.2-1.8,4.2-4c0-2.3-1.7-4-4.2-4h-6.7V324.7z"/>
		<path class="st0" d="M552.5,328.7l10.5-26.5h5.2l10.4,26.5h-5l-2.5-6.5h-11.3l-2.5,6.5H552.5z M561.5,318h8.1l-4-10.6h-0.1
			L561.5,318z"/>
	</g>
	<g>
		<polygon class="st0" points="263.2,275.4 263.2,276.5 276.7,265.8 275.3,265.8 		"/>
		<path class="st0" d="M389.5,285.3l-6.9-19.5h-1.1l6.9,19.6c-1.3,0.4-2.2,1.6-2.2,3c0,0.6,0.2,1.1,0.4,1.5l-5.8,4.6
			c0.3-4.2,0.6-8.3,0.8-12.2c1.3-0.4,2.3-1.6,2.3-3c0-1.6-1.3-3-2.9-3.1l-2.9-10.5h-1.1l2.9,10.6c-0.4,0.1-0.8,0.3-1.1,0.5l-7.8-5.7
			l0.1-5.5h-1.1l0,4.7l-6.4-4.7h-1.8l8.2,6l-0.3,28.7c-0.4,0.1-0.8,0.2-1.2,0.4l-4.2-5l-13.9-30.1h-1.2l12.5,27.1l-17.9-21.1v-6
			h-1.1v4.8l-4.1-4.8h-1.8l-12.8,30.9l-14.1-2c-0.1-1.6-1.4-2.9-3.1-2.9c-0.7-5.6-1.6-12.9-2.6-20.7l11-5.3H313l-8.7,4.2
			c-0.2-1.4-0.3-2.8-0.5-4.2h-1.1c0.2,1.6,0.4,3.2,0.6,4.7l-31,15l-8.9-2.2v1.1l7.4,1.9l-7.4,3.6v1.2l9.1-4.4l31.6,7.9
			c0,0.1,0,0.2,0,0.4c0,0.6,0.2,1.2,0.5,1.7L288,314.8l-24.8-12.5v1.2l24,12.1l-12.2,13.5h1.4l11.8-13l20,10.1
			c-0.2,0.4-0.3,0.8-0.3,1.2l-13.8,1.7h8.8l5.2-0.6c0.1,0.2,0.2,0.4,0.3,0.6h5.4l0,0c0.3-0.5,0.4-1,0.4-1.5c0-0.8-0.3-1.6-0.9-2.1
			l3.4-8.2c1.8,3.9,3.7,7.9,5.6,11.9h1.2c-2-4.3-4.2-8.8-6.3-13.3l7.5-18l18,2.5v28.7h1.1v-28.6l22.9,3.2l0.6,1.3c0,0,0,0,0,0
			l0.6,1.3c-4.5,7.1-9.6,15.2-14.5,22.8h1.3c3.8-5.9,8.3-13,13.7-21.6l1.3,2.8l0.2,18.8h1.1l-0.2-16.5l5.5,11.9
			c-1,0.5-1.7,1.5-1.7,2.7c0,0.7,0.2,1.3,0.6,1.9h5c0.4-0.5,0.6-1.2,0.6-1.9c0-1-0.5-1.8-1.1-2.4l9.6-33.4c1.7-0.1,3-1.4,3-3.1
			C392.4,286.8,391.1,285.4,389.5,285.3z M304.2,293.6l-30.4-7.6l29.6-14.3c1.1,8.8,2,16.4,2.5,20.4
			C305.1,292.3,304.5,292.8,304.2,293.6z M312.5,324.7c-0.4-0.2-0.9-0.3-1.4-0.3c-0.9,0-1.6,0.4-2.2,0.9l-19.9-10l16.1-17.8
			c0.5,0.4,1.2,0.6,1.8,0.6c0.3,0,0.5,0,0.8-0.1c1.8,3.9,4.9,10.5,8.5,17.9L312.5,324.7z M316.7,314.6c-2.9-6.1-5.6-12-8-17
			c0.6-0.4,1.1-1,1.3-1.8l13.8,1.9L316.7,314.6z M342.8,299.3l-17.6-2.5l12.6-30.5l5,5.9V299.3z M343.9,299.5v-26l19.6,23l2.8,6.1
			L343.9,299.5z M367.3,302.4l-1.3-2.8l1.7,2.1C367.6,301.8,367.4,302.1,367.3,302.4z M369.3,306.6c0.2,0,0.3,0.1,0.5,0.1l0,1
			L369.3,306.6z M371.1,272.6l7,5.1c-0.3,0.5-0.5,1-0.5,1.7c0,1.6,1.3,3,2.9,3.1c-0.3,4.8-0.6,9.1-0.9,13l-7.4,5.9
			c-0.4-0.4-0.9-0.7-1.5-0.8L371.1,272.6z M377.8,324.1c-0.2,0-0.3,0-0.4,0l-6.5-14.2l0-3.4c1.4-0.3,2.4-1.6,2.4-3
			c0-0.5-0.1-1-0.3-1.4l6.6-5.3C378.5,312.6,378,320.3,377.8,324.1C377.9,324.1,377.8,324.1,377.8,324.1z M378.9,324.1
			c0.3-5.4,1-16.6,1.8-28l6.6-5.2c0.3,0.3,0.7,0.5,1.1,0.6L378.9,324.1z"/>
	</g>
	<g>
		<g>
			<path class="st0" d="M410,276.8V266h4.3c2.1,0,3.6,1.5,3.6,3.5c0,1.9-1.5,3.5-3.6,3.5h-2.6v3.9H410z M411.7,271.4h2.6
				c1.1,0,1.9-0.8,1.9-1.9c0-1.1-0.9-1.9-1.9-1.9h-2.6V271.4z"/>
			<path class="st0" d="M420,276.8V266h7.6v1.5h-5.9v2.9h4.7v1.5h-4.7v3.3h6.1v1.5H420z"/>
			<path class="st0" d="M428.9,275.2l1.1-1.1c0.5,0.5,1.4,1.3,2.8,1.3c1.5,0,2.4-0.8,2.4-1.8c0-0.9-0.9-1.7-2.4-1.7h-1.4v-1.5h1.4
				c1.3,0,2-0.7,2-1.5c0-0.8-0.7-1.5-2-1.5c-1.1,0-2,0.6-2.6,1.1l-1.1-1.1c0.8-0.8,2-1.6,3.7-1.6c2.4,0,3.7,1.3,3.7,2.9
				c0,1.3-1,2.1-1.7,2.4c1.2,0.4,2.1,1.4,2.1,2.6c0,1.7-1.5,3.2-4.1,3.2C430.9,276.9,429.5,276,428.9,275.2z"/>
			<path class="st0" d="M439.4,276.8V266h1.7v8h0l5.9-8h1.5v10.8h-1.7v-8h0l-5.9,8H439.4z"/>
			<path class="st0" d="M459.9,275.2h1.5v3.9h-1.7v-2.3h-7.6v2.3h-1.7v-3.9h0.6c0.8-0.7,1.8-2.9,1.9-6l0.1-3.2h7V275.2z
				 M458.2,275.2v-7.7h-3.6l0,1.7c-0.1,3.2-1,5.3-1.7,6H458.2z"/>
			<path class="st0" d="M463.5,276.8V266h7.6v1.5h-5.9v2.9h4.7v1.5h-4.7v3.3h6.1v1.5H463.5z"/>
			<path class="st0" d="M473.6,276.8V266h1.7v4.6h5.3V266h1.7v10.8h-1.7v-4.7h-5.3v4.7H473.6z"/>
			<path class="st0" d="M487.4,276.8v-9.3h-3.2V266h8.2v1.5h-3.2v9.3H487.4z"/>
			<path class="st0" d="M496.6,271.4c0-3.1,2.5-5.6,5.7-5.6s5.7,2.5,5.7,5.6c0,3.1-2.5,5.6-5.7,5.6S496.6,274.5,496.6,271.4z
				 M506.3,271.4c0-2.2-1.8-4-4-4c-2.2,0-4,1.8-4,4c0,2.2,1.8,4,4,4C504.5,275.4,506.3,273.6,506.3,271.4z"/>
			<path class="st0" d="M509,274.9l1.2-1c0.6,0.7,1.5,1.5,3.2,1.5c2,0,3.6-1.4,4-3.3h-5.2v-1.5h5.1c-0.4-1.8-1.8-3.2-3.8-3.2
				c-1.7,0-2.6,0.8-3.2,1.5l-1.2-1c0.7-0.9,2.3-2.1,4.4-2.1c3.2,0,5.6,2.5,5.6,5.6c0,3.1-2.5,5.6-5.7,5.6
				C511.3,276.9,509.8,275.8,509,274.9z"/>
			<path class="st0" d="M520.2,275.2l1.1-1.1c0.5,0.5,1.4,1.3,2.8,1.3c1.5,0,2.4-0.8,2.4-1.8c0-0.9-0.9-1.7-2.4-1.7h-1.4v-1.5h1.4
				c1.3,0,2-0.7,2-1.5c0-0.8-0.7-1.5-2-1.5c-1.1,0-2,0.6-2.6,1.1l-1.1-1.1c0.8-0.8,2-1.6,3.7-1.6c2.4,0,3.7,1.3,3.7,2.9
				c0,1.3-1,2.1-1.7,2.4c1.2,0.4,2.1,1.4,2.1,2.6c0,1.7-1.5,3.2-4.1,3.2C522.1,276.9,520.8,276,520.2,275.2z"/>
		</g>
	</g>
</g>
</svg>
