<?xml version="1.0" encoding="utf-8"?>
<!-- Generator: Adobe Illustrator 25.2.0, SVG Export Plug-In . SVG Version: 6.00 Build 0)  -->
<svg version="1.1" id="Слой_1" xmlns="http://www.w3.org/2000/svg" xmlns:xlink="http://www.w3.org/1999/xlink" x="0px" y="0px"
	 viewBox="0 0 841.9 595.3" style="enable-background:new 0 0 841.9 595.3;" xml:space="preserve">
<style type="text/css">
	.st0{fill:#D01B50;}
</style>
<g>
	<g>
		<polygon class="st0" points="151.2,274 151.2,275.2 166,263.5 164.4,263.5 		"/>
		<path class="st0" d="M289.5,284.8l-7.6-21.4h-1.2l7.6,21.5c-1.4,0.4-2.4,1.7-2.4,3.3c0,0.6,0.2,1.2,0.5,1.7L280,295
			c0.3-4.6,0.6-9.1,0.9-13.4c1.4-0.4,2.5-1.7,2.5-3.3c0-1.8-1.4-3.2-3.1-3.4l-3.1-11.5h-1.2l3.2,11.6c-0.4,0.1-0.8,0.3-1.2,0.6
			l-8.5-6.2l0.1-6h-1.2l-0.1,5.1l-7.1-5.1h-2l9,6.6l-0.3,31.5c-0.5,0.1-0.9,0.2-1.3,0.4l-4.6-5.5l-15.2-33h-1.3l13.7,29.7
			l-19.6-23.1v-6.6h-1.2v5.2l-4.4-5.2h-2l-14,33.8l-15.4-2.2c-0.1-1.8-1.6-3.1-3.4-3.1c-0.8-6.1-1.8-14.1-2.8-22.6l12.1-5.8h-2.7
			l-9.5,4.6c-0.2-1.5-0.4-3.1-0.6-4.6h-1.2c0.2,1.7,0.4,3.5,0.6,5.2l-34,16.5l-9.8-2.5v1.2l8.2,2l-8.2,3.9v1.3l9.9-4.8l34.6,8.7
			c0,0.1,0,0.3,0,0.4c0,0.7,0.2,1.4,0.6,1.9l-17.9,19.8l-27.1-13.7v1.3l26.3,13.3l-13.4,14.8h1.6l12.9-14.3l21.9,11.1
			c-0.2,0.4-0.3,0.8-0.3,1.3l-15.1,1.9h9.6l5.7-0.7c0.1,0.3,0.2,0.5,0.4,0.7h5.9l0-0.1c0.3-0.5,0.5-1.1,0.5-1.7
			c0-0.9-0.4-1.7-0.9-2.3l3.7-9c2,4.2,4.1,8.7,6.2,13.1h1.3c-2.2-4.7-4.6-9.7-6.8-14.5l8.2-19.7l19.8,2.8v31.5h1.2v-31.3l25.1,3.5
			l0.6,1.4c0,0,0,0,0,0l0.6,1.4c-4.9,7.8-10.5,16.7-15.8,25h1.4c4.1-6.4,9.1-14.2,15-23.7l1.4,3l0.2,20.6h1.2l-0.2-18.1l6,13
			c-1.1,0.6-1.8,1.7-1.8,3c0,0.8,0.3,1.5,0.7,2h5.4c0.4-0.6,0.7-1.3,0.7-2c0-1.1-0.5-2-1.2-2.6l10.5-36.5c1.8-0.1,3.3-1.6,3.3-3.4
			C292.7,286.4,291.2,284.9,289.5,284.8z M196,293.9l-33.2-8.3l32.4-15.7c1.2,9.7,2.2,18,2.8,22.3
			C197.1,292.4,196.4,293.1,196,293.9z M205.1,328c-0.5-0.2-1-0.4-1.5-0.4c-1,0-1.8,0.4-2.4,1l-21.8-11l17.7-19.5
			c0.6,0.4,1.3,0.7,2,0.7c0.3,0,0.6,0,0.8-0.1c2,4.2,5.4,11.5,9.3,19.7L205.1,328z M209.8,316.9c-3.1-6.6-6.2-13.1-8.8-18.7
			c0.7-0.5,1.2-1.1,1.4-1.9l15.1,2.1L209.8,316.9z M238.4,300.1l-19.3-2.7l13.8-33.4l5.5,6.4V300.1z M239.5,300.3v-28.4l21.4,25.2
			l3.1,6.7L239.5,300.3z M265.2,303.5l-1.4-3.1l1.9,2.3C265.5,302.9,265.3,303.2,265.2,303.5z M267.3,308.1c0.2,0.1,0.3,0.1,0.5,0.1
			l0,1L267.3,308.1z M269.4,270.9l7.7,5.6c-0.3,0.5-0.5,1.1-0.5,1.8c0,1.8,1.4,3.3,3.2,3.4c-0.4,5.3-0.7,10-1,14.2l-8.1,6.4
			c-0.4-0.4-1-0.7-1.6-0.9L269.4,270.9z M276.7,327.4c-0.2,0-0.3,0-0.5,0l-7.2-15.5l0-3.7c1.5-0.3,2.7-1.7,2.7-3.3
			c0-0.5-0.1-1-0.4-1.5l7.3-5.8C277.4,314.7,276.9,323.2,276.7,327.4C276.7,327.4,276.7,327.4,276.7,327.4z M277.9,327.3
			c0.3-5.9,1.1-18.2,2-30.7l7.2-5.7c0.3,0.3,0.7,0.5,1.2,0.6L277.9,327.3z"/>
	</g>
	<g>
		<path class="st0" d="M352.8,273.7h-10.2v4.3h-3.9v-4.3h-18.7v-4.1h18.7v-6.1h3.9v6.1h10.2V273.7z M388.4,314.3h-33.8
			c-1.9,5-5.5,8.8-10.8,11.4c-5.3,2.6-12.5,4.8-21.6,6.6l-2.3-3.9c17.9-3.1,28-7.8,30.4-14.1h-30.4v-3.9h31.4c0.5-1.9,0.7-3.9,0.7-6
			h-24.9V280h54.1v24.4h-25.1c0,1.9-0.2,3.9-0.5,6h32.8V314.3z M377.2,290.2V284h-45.9v6.2H377.2z M377.2,300.4v-6.2h-45.9v6.2
			H377.2z M388.4,273.7h-18.4v4.3h-4.3v-4.3h-9.9v-4.1h9.9v-6.1h4.3v6.1h18.4V273.7z M386.6,329.4l-2.3,3.4
			c-7.5-3.8-16.5-7.2-27.1-10.2l2.3-3.7C369.9,321.9,378.9,325.4,386.6,329.4z"/>
		<path class="st0" d="M413.7,317c-3.7,5.9-7.6,10.8-11.7,14.7l-3.5-3c4.2-3.2,8.2-7.9,11.8-14L413.7,317z M435.9,275.8h-5.6v32.4
			h5.5v3.8h-36.9v-3.8h6.9v-32.4H400V272h5.7v-9h4v9h16.6v-9h4v9h5.6V275.8z M426.3,283.5v-7.7h-16.6v7.7H426.3z M426.3,295.7v-8.2
			h-16.6v8.2H426.3z M426.3,308.2v-8.6h-16.6v8.6H426.3z M430.5,324.9l-3.5,2.2c-1.4-3.1-3.6-6.4-6.6-10l3.2-2
			C426.7,318.5,429,321.8,430.5,324.9z M467.3,292h-8.7v39.9h-4V292h-10.6c0.3,17.5-2.7,30.8-9,40l-3.8-2.2c6-8.5,9-20.4,9-35.6
			v-24.7c8.8-1.1,16.7-3.2,23.7-6.4l2.5,3.3c-6.9,3-14.4,5.1-22.3,6.4V288h23.2V292z"/>
		<path class="st0" d="M509.2,265.8c-3.4,1.5-7.4,2.9-12.2,4v12.6h11.7v4H497v4c5,4.8,8.8,9.4,11.7,13.5l-2.9,3.3
			c-2.4-3.8-5.3-7.6-8.7-11.2v35.7h-4v-36.9c-3.4,6.7-7.6,13.4-12.8,19.9l-2.8-3.5c6.9-8,12-16.2,15.2-24.7h-14.9v-4H493v-11.5
			c-2.2,0.5-6,1.2-11.4,2l-2.2-3.9c10.3-1.1,19.4-3.3,27.2-6.5L509.2,265.8z M546.7,310.8l-8,1.2v19.8h-4.2v-19.1l-25.9,3.9
			l-0.3-4.1l26.2-4v-45.6h4.2v44.8l7.9-1L546.7,310.8z M528,300.6l-2.8,3.2c-3.3-4.5-8.1-9.2-14.5-13.9l2.6-3.2
			C519.3,291.2,524.3,295.8,528,300.6z M529.8,279.4l-2.5,3.5c-4.4-4.8-9.1-8.9-14.1-12.2l2.3-3.2
			C520.4,270.6,525.1,274.5,529.8,279.4z"/>
	</g>
	<g>
		<g>
			<path class="st0" d="M571.8,277.6c-1.3,0.6-2.7,1.2-4.2,1.7v10.8c0,0.6-0.3,1.2-0.8,1.6c-0.5,0.5-1.9,0.7-4.2,0.6l-0.7-1.9
				c0.7,0,1.3,0,1.9,0c0.9,0,1.5-0.1,1.7-0.2c0.2-0.1,0.3-0.4,0.3-0.7v-9.6c-1.2,0.4-2.7,0.9-4.4,1.4l-0.6-1.6
				c1.9-0.6,3.5-1.1,5.1-1.6v-7.5H561v-1.7h4.8V263h1.7v5.9h3.8v1.7h-3.8v6.8c0.9-0.3,2.2-0.8,3.7-1.5L571.8,277.6z M590.3,290.9
				l-1,1.5c-3.5-1.6-6.3-3.3-8.4-5.1c-2.8,2-6.2,3.7-9.9,5.1c0,0,0,0,0,0c0,0,0,0-0.1-0.1c0,0-0.1-0.1-0.3-0.4
				c-0.1-0.2-0.4-0.6-0.7-1.1c3.5-1.1,6.7-2.6,9.8-4.7c-2.2-2.5-3.9-5.7-5-9.4h-1.5v-1.7h6.9v-5.5h-7.4V268h7.4v-5h1.8v5h7.8v1.7
				h-7.8v5.5h6.3v1.7c-0.7,2.5-1.5,4.4-2.5,5.8c-1,1.4-2.1,2.6-3.4,3.7C584.1,288,586.8,289.6,590.3,290.9z M586.4,276.8h-9.9
				c1,3.2,2.5,6,4.5,8.3C583.7,282.9,585.5,280.2,586.4,276.8z"/>
			<path class="st0" d="M623.6,271.8h-13.2c3.5,7.8,7.9,13.5,13.1,17.2l-1.3,1.2c-4.8-3.5-8.9-8.7-12.4-15.7v17.8h-1.7v-17.8
				c-3.8,7.1-8,12.3-12.6,15.4l-1.3-1.2c5-3.5,9.5-9.2,13.3-17h-13.3v-1.7h13.9v-6.9h1.7v6.9h13.7V271.8z M621.5,268l-1.2,1.3
				c-1.2-1.3-3-2.6-5.3-4l1.2-1.2C618.2,265.2,619.9,266.5,621.5,268z"/>
			<path class="st0" d="M636.3,283.5c-3.3,2.1-6.1,3.6-8.3,4.6l-0.4-1.8c1.6-0.7,2.9-1.4,3.9-2v-10.6h-3.2V272h3.2v-8.9h1.7v8.9h3
				v1.7h-3v9.7c0.9-0.5,1.9-1.1,3-1.8V283.5z M657.1,286.2c-0.5,2.6-1,4.3-1.5,5.1c-0.5,0.8-1.1,1.2-1.8,1.2c-0.6,0-1.3-0.4-2.1-1.2
				c-0.8-0.8-1.5-2.3-2.3-4.5c-2.2,2.6-4.2,4.5-5.9,5.7l-1.3-1.2c2.5-1.9,4.7-4.1,6.6-6.6c-0.7-3.1-1.1-8.2-1.4-15.2h-7.8v5.2h5.9
				c0,2.5-0.1,4.9-0.2,7.1c-0.1,2.2-0.2,3.5-0.3,4s-0.3,0.9-0.7,1.2c-0.3,0.3-0.7,0.6-1.2,0.7c-0.5,0.1-1.3,0.2-2.4,0.1l-0.6-1.8
				c0.6,0.1,1.3,0.1,2,0.1c0.6,0,1-0.2,1.2-0.7c0.2-0.5,0.4-3.5,0.5-9h-4.3c0.1,6.3-1.4,11.7-4.6,16.3l-1.4-1.2
				c2.9-3.7,4.4-8.8,4.4-15.2v-8.5h9.4c-0.1-1.4-0.1-2.9,0-4.6h1.7v4.6h7.6v1.7h-7.5c0.1,5.8,0.5,10.1,1,12.9
				c1.5-2.6,2.7-5.8,3.6-9.7l1.6,0.7c-1,4.4-2.6,8.3-4.6,11.6c0.1,0.8,0.6,1.9,1.3,3.5c0.7,1.6,1.3,2.4,1.7,2.4
				c0.2,0,0.3-0.1,0.5-0.2c0.1-0.1,0.4-0.7,0.7-1.7c0.3-1,0.5-2.2,0.7-3.6L657.1,286.2z M655.6,266.2l-1.4,0.9
				c-0.9-1.2-1.7-2.3-2.6-3.1l1.3-0.9C653.7,263.8,654.6,264.9,655.6,266.2z"/>
			<path class="st0" d="M571.6,328.1c-4.9,2.1-8.3,3.5-10.2,4l-0.6-1.7c3.1-0.9,6.5-2.3,10.3-4L571.6,328.1z M571.6,309.8
				c-2.6,5.6-5.2,10.1-7.7,13.5c1.3-0.4,3.6-1.3,7-2.7l0.5,1.6c-4.2,1.7-7.3,2.9-9.6,3.6l-0.6-1.6c2-2.3,4-5.5,6.1-9.4
				c-1.6,0.4-3.5,0.8-5.5,1.1l-0.5-1.6c2.1-3.1,4-6.8,5.7-11.2l1.6,0.5c-1.3,3.6-3,6.9-5,10.1c1.4-0.2,3-0.6,4.8-1.1
				c0.6-1.1,1.2-2.3,1.8-3.6L571.6,309.8z M590.5,317.1l-1,1.4c-2.8-2.2-5.7-4.2-8.7-5.8c-3.1,2.4-6.3,4.2-9.5,5.6l-1-1.5
				c6.2-2.4,11.1-6.1,14.6-11.1h-13v-1.7H587v1.7c-1.2,2-2.9,3.9-5,5.8C586,313.8,588.8,315.7,590.5,317.1z M589.4,331.8h-17.8v-1.7
				h7.9v-9h-6.8v-1.7h15.4v1.7h-6.9v9h8.1V331.8z"/>
			<path class="st0" d="M602.2,322.1c-2.3,4-4.6,7.4-6.8,10.2l-1.3-1.3c2.4-2.9,4.7-6.2,6.8-10L602.2,322.1z M601.3,316.1l-1.2,1.4
				c-1.4-1.5-3.3-3-5.8-4.5l1.2-1.5C597.7,313,599.7,314.5,601.3,316.1z M602.1,307.3l-1.2,1.4c-1.4-1.4-3.2-2.7-5.5-4.2l1.2-1.3
				C598.9,304.5,600.7,305.8,602.1,307.3z M609.1,319c0,4.4-0.5,7.4-1.3,9.1c-0.9,1.6-2.5,3.2-4.9,4.6l-1.2-1.4
				c1.2-0.6,2.3-1.4,3.2-2.4c0.9-1,1.6-2,1.9-3.1c0.4-1.1,0.5-3.4,0.5-6.9L609.1,319z M623.8,317.4l-0.8,1.6
				c-4.2-0.7-7.6-1.8-10.2-3.4c-2.5,1.5-5.9,2.6-10.3,3.4l-0.8-1.7c4-0.6,7.2-1.5,9.5-2.7c-2.6-2-4.5-4.3-5.8-7h-2.6V306h9.4
				c-0.3-0.8-0.7-1.6-1.1-2.3l1.7-0.6c0.6,1.2,1.1,2.1,1.4,2.9h9.1v1.7h-3.2c-1.6,3-3.5,5.3-5.7,7
				C617.4,316.1,620.6,317,623.8,317.4z M618.1,307.6h-10.8c1.3,2.4,3.2,4.4,5.5,6C614.8,312.3,616.6,310.3,618.1,307.6z M619,332.6
				h-1.8V319h1.8V332.6z"/>
			<path class="st0" d="M639.7,318.4l-3.7,2.4v12h-1.7v-11c-2.2,1.1-4.2,2.1-5.8,2.8l-0.7-1.6c2.4-1,4.6-2.1,6.5-3.2v-7.3h-3.3
				c-0.5,2.2-1,4.1-1.6,5.5l-1.5-0.7c1-2.9,1.8-6.5,2.3-10.6l1.7,0.4c-0.1,1.1-0.3,2.3-0.5,3.6h3v-7.3h1.7v7.3h3.5v1.7h-3.5v6.3
				c1.2-0.7,2.3-1.4,3.4-2.2L639.7,318.4z M657,321.4h-3.8v9.5c0,0.5-0.2,0.9-0.5,1.2c-0.3,0.3-0.8,0.5-1.4,0.6
				c-0.6,0.1-1.6,0.1-2.8,0.1c-0.7,0-1.3,0-1.8,0L646,331c1.4,0.1,2.5,0.1,3.3,0.1c1.1,0,1.7-0.1,1.9-0.2c0.2-0.2,0.3-0.4,0.3-0.9
				v-8.6h-12.6v-1.7h12.6v-3.1h1.7v3.1h3.8V321.4z M656.2,309H649v4.7h6.3v1.6h-14.7v-1.6h6.6V309H639v-1.7h8.2v-3.8h1.7v3.8h7.2
				V309z M646.6,328l-1.5,0.9c-0.9-1.9-2.1-3.7-3.6-5.5l1.5-1C644.4,324.2,645.6,326.1,646.6,328z"/>
			<path class="st0" d="M690.7,331.7h-24.5c-0.8,0-1.4-0.3-1.9-0.8c-0.5-0.5-0.7-1.2-0.7-2v-23.2h-2.1v-1.7h28.8v1.7h-24.9v23.4
				c0,0.3,0.1,0.5,0.4,0.6c0.2,0.2,0.5,0.3,0.8,0.3h24.1V331.7z M688.4,327.1l-1.4,1.1c-2.7-3-5.6-5.8-8.7-8.6
				c-2.6,2.7-6,5.6-10.2,8.6l-1.4-1.2c4.4-3.2,7.8-6.1,10.3-8.7c-2.4-2.1-5.4-4.6-9-7.5l1.3-1.2c3.4,2.7,6.4,5.2,8.9,7.4
				c2.5-2.8,4.9-5.9,7-9.3l1.5,0.8c-2.1,3.4-4.5,6.6-7.2,9.7C683.1,321.5,686.1,324.4,688.4,327.1z"/>
		</g>
	</g>
</g>
</svg>
