<?xml version="1.0" encoding="utf-8"?>
<!-- Generator: Adobe Illustrator 25.2.0, SVG Export Plug-In . SVG Version: 6.00 Build 0)  -->
<svg version="1.1" id="Слой_1" xmlns="http://www.w3.org/2000/svg" xmlns:xlink="http://www.w3.org/1999/xlink" x="0px" y="0px"
	 viewBox="0 0 841.9 595.3" style="enable-background:new 0 0 841.9 595.3;" xml:space="preserve">
<style type="text/css">
	.st0{fill:#D01B50;}
</style>
<g>
	<path class="st0" d="M401.6,342.2c0-2.9,2.4-5.3,5.4-5.3c3.1,0,5.4,2.4,5.4,5.3c0,2.9-2.4,5.3-5.4,5.3
		C403.9,347.6,401.6,345.2,401.6,342.2z M410.9,342.2c0-2.1-1.7-3.8-3.8-3.8c-2.1,0-3.8,1.7-3.8,3.8c0,2.1,1.7,3.8,3.8,3.8
		C409.2,346.1,410.9,344.4,410.9,342.2z"/>
	<path class="st0" d="M414.6,342.2c0-2.9,2.4-5.3,5.4-5.3c2,0,3.5,1.1,4.2,2l-1.1,0.9c-0.6-0.6-1.5-1.4-3.1-1.4
		c-2.1,0-3.8,1.7-3.8,3.8c0,2.1,1.7,3.8,3.8,3.8c1.6,0,2.5-0.8,3.1-1.5l1.1,0.9c-0.8,0.9-2.2,2-4.3,2
		C417,347.6,414.6,345.2,414.6,342.2z"/>
	<path class="st0" d="M425.8,342.2c0-2.9,2.4-5.3,5.4-5.3c3.1,0,5.4,2.4,5.4,5.3c0,2.9-2.4,5.3-5.4,5.3
		C428.1,347.6,425.8,345.2,425.8,342.2z M435.1,342.2c0-2.1-1.7-3.8-3.8-3.8c-2.1,0-3.8,1.7-3.8,3.8c0,2.1,1.7,3.8,3.8,3.8
		C433.4,346.1,435.1,344.4,435.1,342.2z"/>
	<path class="st0" d="M439.5,347.4v-10.3h6.8v1.5h-5.2v2.5h2.7c1.9,0,3.3,1.4,3.3,3.2s-1.4,3.2-3.3,3.2H439.5z M441.1,345.9h2.7
		c1,0,1.7-0.7,1.7-1.7c0-1-0.7-1.7-1.7-1.7h-2.7V345.9z"/>
	<path class="st0" d="M448.4,347.4l4.1-10.3h1.8l4.1,10.3h-1.7l-1-2.6h-4.6l-1,2.6H448.4z M451.7,343.3h3.4l-1.7-4.3h0L451.7,343.3z
		"/>
	<path class="st0" d="M467.7,337.1v10.3h-1.6v-3.8h-2.2l-2.4,3.8h-1.8l2.5-4c-1.3-0.5-2.1-1.6-2.1-3c0-1.8,1.4-3.2,3.4-3.2H467.7z
		 M466.1,342.1v-3.5h-2.7c-1,0-1.8,0.7-1.8,1.8c0,1,0.7,1.8,1.8,1.8H466.1z"/>
	<path class="st0" d="M477.7,345.6l1.1-0.9c0.6,0.6,1.5,1.4,3.1,1.4c1.9,0,3.5-1.4,3.8-3.2h-4.9v-1.5h4.9c-0.4-1.7-1.7-3-3.6-3
		c-1.6,0-2.5,0.8-3.1,1.4l-1.1-0.9c0.7-0.9,2.1-2,4.2-2c3.1,0,5.3,2.4,5.3,5.3c0,2.9-2.4,5.3-5.4,5.3
		C479.9,347.6,478.4,346.5,477.7,345.6z"/>
	<path class="st0" d="M490.2,347.4v-10.3h1.6v5l4.6-5h2.1l-4,4.3l4.3,6h-2l-3.4-4.9l-1.6,1.8v3.1H490.2z"/>
	<path class="st0" d="M499.9,342.2c0-2.9,2.4-5.3,5.4-5.3s5.4,2.4,5.4,5.3c0,2.9-2.4,5.3-5.4,5.3S499.9,345.2,499.9,342.2z
		 M509.1,342.2c0-2.1-1.7-3.8-3.8-3.8c-2.1,0-3.8,1.7-3.8,3.8c0,2.1,1.7,3.8,3.8,3.8C507.5,346.1,509.1,344.4,509.1,342.2z"/>
	<path class="st0" d="M513.6,347.4v-10.3h1.6v4.3h5.1v-4.3h1.6v10.3h-1.6v-4.5h-5.1v4.5H513.6z"/>
	<path class="st0" d="M524.7,342.2c0-2.9,2.4-5.3,5.4-5.3c3.1,0,5.4,2.4,5.4,5.3c0,2.9-2.4,5.3-5.4,5.3
		C527,347.6,524.7,345.2,524.7,342.2z M533.9,342.2c0-2.1-1.7-3.8-3.8-3.8s-3.8,1.7-3.8,3.8c0,2.1,1.7,3.8,3.8,3.8
		S533.9,344.4,533.9,342.2z"/>
	<path class="st0" d="M538.4,347.4v-10.3h1.5l3.9,5h0l3.9-5h1.5v10.3h-1.6v-7.5h-0.1l-3.7,4.7l-3.7-4.7H540v7.5H538.4z"/>
	<path class="st0" d="M552.6,347.4v-10.3h1.6v7.7h0l5.6-7.7h1.5v10.3h-1.6v-7.7h0l-5.6,7.7H552.6z"/>
	<path class="st0" d="M570.6,347.4v-4.1c-0.5,0.3-1.5,0.7-2.6,0.7c-2.2,0-3.6-1.4-3.6-3.8v-3.1h1.6v3.1c0,1.4,0.9,2.3,2.3,2.3
		c1,0,1.9-0.5,2.4-0.9v-4.5h1.6v10.3H570.6z"/>
	<path class="st0" d="M575.7,347.4v-10.3h7.3v1.5h-5.7v2.8h4.5v1.5h-4.5v3.1h5.8v1.5H575.7z"/>
	<path class="st0" d="M584.9,342.2c0-2.9,2.4-5.3,5.4-5.3c2,0,3.5,1.1,4.2,2l-1.1,0.9c-0.6-0.6-1.5-1.4-3.1-1.4
		c-2.1,0-3.8,1.7-3.8,3.8c0,2.1,1.7,3.8,3.8,3.8c1.6,0,2.5-0.8,3.1-1.5l1.1,0.9c-0.8,0.9-2.2,2-4.3,2
		C587.2,347.6,584.9,345.2,584.9,342.2z"/>
	<path class="st0" d="M597,347.4v-10.3h1.6v5l4.6-5h2.1l-4,4.3l4.3,6h-2l-3.4-4.9l-1.6,1.8v3.1H597z"/>
	<path class="st0" d="M606.6,347.4l4.1-10.3h1.8l4.1,10.3h-1.7l-1-2.6h-4.6l-1,2.6H606.6z M609.8,343.3h3.4l-1.7-4.3h0L609.8,343.3z
		"/>
	<path class="st0" d="M625.9,337.1v10.3h-1.6v-3.8h-2.2l-2.4,3.8h-1.8l2.5-4c-1.3-0.5-2.1-1.6-2.1-3c0-1.8,1.4-3.2,3.4-3.2H625.9z
		 M624.3,342.1v-3.5h-2.6c-1,0-1.8,0.7-1.8,1.8c0,1,0.7,1.8,1.8,1.8H624.3z"/>
	<path class="st0" d="M637.1,345.9l1.1-1c0.5,0.5,1.4,1.2,2.7,1.2c1.5,0,2.3-0.8,2.3-1.7c0-0.8-0.8-1.7-2.3-1.7h-1.3v-1.5h1.3
		c1.3,0,1.9-0.7,1.9-1.4c0-0.7-0.7-1.4-1.9-1.4c-1.1,0-1.9,0.6-2.5,1.1l-1-1.1c0.8-0.7,1.9-1.5,3.5-1.5c2.3,0,3.5,1.3,3.5,2.7
		c0,1.2-0.9,2-1.6,2.3c1.1,0.4,2,1.3,2,2.5c0,1.6-1.5,3.1-3.9,3.1C639,347.6,637.7,346.7,637.1,345.9z"/>
	<path class="st0" d="M646.9,342.2c0-2.9,2.4-5.3,5.4-5.3c3.1,0,5.4,2.4,5.4,5.3c0,2.9-2.4,5.3-5.4,5.3
		C649.3,347.6,646.9,345.2,646.9,342.2z M656.2,342.2c0-2.1-1.7-3.8-3.8-3.8c-2.1,0-3.8,1.7-3.8,3.8c0,2.1,1.7,3.8,3.8,3.8
		C654.5,346.1,656.2,344.4,656.2,342.2z"/>
	<path class="st0" d="M660.6,347.4v-10.3h1.6v4.3h5.1v-4.3h1.6v10.3h-1.6v-4.5h-5.1v4.5H660.6z"/>
	<path class="st0" d="M671.2,347.4l4.1-10.3h1.8l4.1,10.3h-1.7l-1-2.6h-4.6l-1,2.6H671.2z M674.4,343.3h3.4l-1.7-4.3h0L674.4,343.3z
		"/>
</g>
<g>
	<path class="st0" d="M407.7,267.5v-16h-5.6v-2.7h14.1v2.7h-5.6v16H407.7z"/>
	<path class="st0" d="M419.5,267.5v-18.7h13.2v2.7h-10.3v5h8.1v2.7h-8.1v5.7h10.5v2.7H419.5z"/>
	<path class="st0" d="M434.4,267.5l6.7-9.7l-6.1-9h3.5l4.5,6.7h0.1l4.5-6.7h3.4l-6.1,8.9l6.7,9.8H448l-5-7.5h-0.1l-5,7.5H434.4z"/>
	<path class="st0" d="M454.8,267.5v-18.7h2.9v7.9h9.2v-7.9h2.9v18.7h-2.9v-8.1h-9.2v8.1H454.8z"/>
	<path class="st0" d="M474,258.2c0-5.3,4.3-9.6,9.9-9.6c5.6,0,9.9,4.3,9.9,9.6s-4.3,9.6-9.9,9.6C478.3,267.8,474,263.5,474,258.2z
		 M490.8,258.2c0-3.9-3.1-6.9-6.9-6.9c-3.9,0-6.9,3.1-6.9,6.9c0,3.9,3.1,6.9,6.9,6.9C487.8,265.1,490.8,262.1,490.8,258.2z"/>
	<path class="st0" d="M497.9,267.5v-18.7H513v18.7H510v-16h-9.2v16H497.9z"/>
	<path class="st0" d="M517.1,258.2c0-5.3,4.3-9.6,9.9-9.6c5.6,0,9.9,4.3,9.9,9.6s-4.3,9.6-9.9,9.6
		C521.4,267.8,517.1,263.5,517.1,258.2z M533.9,258.2c0-3.9-3.1-6.9-6.9-6.9c-3.9,0-6.9,3.1-6.9,6.9c0,3.9,3.1,6.9,6.9,6.9
		C530.8,265.1,533.9,262.1,533.9,258.2z"/>
	<path class="st0" d="M542.6,248.9H555v18.7h-2.9v-16h-6.6l-0.1,2.9c-0.3,10.9-2.5,13.3-5.9,13.3c-0.8,0-1.4-0.2-1.7-0.4v-2.7
		c0.3,0.1,0.9,0.3,1.5,0.3c1.7,0,3.1-1.6,3.3-10.5L542.6,248.9z"/>
	<path class="st0" d="M560.3,267.5v-18.7h2.9v13.9h0.1l10.2-13.9h2.7v18.7h-2.9v-13.9h-0.1L563,267.5H560.3z"/>
	<path class="st0" d="M580.3,258.2c0-5.3,4.3-9.6,9.9-9.6c3.7,0,6.3,2,7.6,3.6l-2.1,1.7c-1-1.1-2.7-2.6-5.5-2.6
		c-3.9,0-6.9,3.1-6.9,6.9c0,3.9,3.1,6.9,6.9,6.9c2.9,0,4.6-1.4,5.7-2.7l2.1,1.7c-1.4,1.7-4,3.7-7.7,3.7
		C584.6,267.8,580.3,263.5,580.3,258.2z"/>
</g>
<g>
	<path class="st0" d="M402.1,322.1v-43.8h7.2l15.9,20.4h0.1l16-20.4h7v43.8h-7.8v-30.9h-0.3l-15,19.2l-15-19.2h-0.3v30.9H402.1z"/>
	<path class="st0" d="M455.3,300.2c0-12.6,10.1-22.7,23.4-22.7c13.3,0,23.4,10.1,23.4,22.7c0,12.6-10.1,22.7-23.4,22.7
		C465.4,322.9,455.3,312.8,455.3,300.2z M494.2,300.2c0-8.6-6.9-15.5-15.5-15.5s-15.5,6.9-15.5,15.5c0,8.6,6.9,15.5,15.5,15.5
		S494.2,308.9,494.2,300.2z"/>
	<path class="st0" d="M507.5,300.2c0-12.6,10.1-22.7,23.4-22.7c9,0,15.1,4.6,18.2,8.4l-5.4,4.6c-2.5-2.7-6.3-5.9-12.8-5.9
		c-8.7,0-15.5,6.9-15.5,15.5c0,8.6,6.8,15.5,15.5,15.5c6.6,0,10.5-3.2,13.1-6.1l5.4,4.6c-3.3,3.9-9.6,8.6-18.5,8.6
		C517.5,322.9,507.5,312.8,507.5,300.2z"/>
	<path class="st0" d="M557.1,322.1v-43.8h7.8v20.5l18.7-20.5h9.7l-16.7,18.2l17.9,25.7h-9.5l-13.7-19.9l-6.5,7.1v12.8H557.1z"/>
	<path class="st0" d="M601.4,322.1v-43.8h18c8.2,0,13.5,5.3,13.5,11.6c0,4.4-2.6,7.5-5.6,8.8c3.2,1.2,7.8,4.9,7.8,10.8
		c0,6.8-5.9,12.7-14.7,12.7H601.4z M609.3,296h10c3.5,0,5.8-2.3,5.8-5.5c0-3.3-2.3-5.6-5.8-5.6h-10V296z M609.3,315.6h11
		c4.1,0,6.9-2.9,6.9-6.7c0-3.8-2.9-6.6-6.9-6.6h-11V315.6z"/>
	<path class="st0" d="M637.9,322.1l17.3-43.8h8.6l17.3,43.8h-8.3l-4.1-10.8h-18.7l-4.1,10.8H637.9z M652.8,304.5h13.4l-6.6-17.6
		h-0.1L652.8,304.5z"/>
</g>
<g>
	<polygon class="st0" points="159.7,263.8 159.7,265.5 180.7,248.9 178.5,248.9 	"/>
	<path class="st0" d="M356.2,279.2l-10.7-30.4h-1.8l10.8,30.6c-2,0.6-3.5,2.4-3.5,4.6c0,0.9,0.2,1.7,0.7,2.4l-9,7.2
		c0.4-6.5,0.9-13,1.3-19c2-0.6,3.5-2.4,3.5-4.6c0-2.6-2-4.6-4.5-4.8l-4.5-16.4h-1.7l4.5,16.5c-0.6,0.2-1.2,0.5-1.7,0.8l-12.1-8.8
		l0.1-8.5h-1.7l-0.1,7.3l-10-7.3h-2.8l12.8,9.4l-0.5,44.7c-0.6,0.1-1.3,0.3-1.8,0.6l-6.6-7.8l-21.6-46.9h-1.8l19.4,42.2l-27.8-32.8
		v-9.4h-1.7v7.4l-6.3-7.4h-2.9l-19.9,48l-21.9-3.1c-0.2-2.5-2.3-4.5-4.8-4.5c-1.1-8.7-2.5-20-4-32.2l17.2-8.3h-3.8l-13.6,6.6
		c-0.3-2.2-0.5-4.4-0.8-6.6h-1.7c0.3,2.5,0.6,4.9,0.9,7.3l-48.3,23.4l-13.9-3.5v1.7l11.6,2.9l-11.6,5.6v1.8l14.1-6.8l49.1,12.3
		c0,0.2-0.1,0.4-0.1,0.6c0,1,0.3,1.9,0.8,2.7l-25.5,28.2l-38.5-19.5v1.9l37.4,18.9l-19,21h2.2l18.3-20.3l31.2,15.7
		c-0.3,0.6-0.4,1.2-0.4,1.9l-21.5,2.7h13.7l8.1-1c0.1,0.4,0.3,0.7,0.5,1h8.3l-0.1-0.1c0.4-0.7,0.7-1.5,0.7-2.4
		c0-1.3-0.5-2.4-1.3-3.3l5.3-12.8c2.8,6,5.8,12.3,8.7,18.5h1.8c-3.2-6.7-6.5-13.7-9.7-20.6l11.6-28l28.1,4v44.7h1.7v-44.5l35.6,5
		l0.9,2c0,0,0,0,0,0l0.9,2c-7,11.1-15,23.7-22.5,35.5h2c5.8-9.2,12.9-20.2,21.3-33.7l2,4.3l0.3,29.3h1.7l-0.2-25.7l8.5,18.5
		c-1.5,0.8-2.6,2.4-2.6,4.3c0,1.1,0.4,2.1,1,2.9h7.7c0.6-0.8,1-1.8,1-2.9c0-1.5-0.7-2.8-1.8-3.7l15-51.9c2.6-0.1,4.6-2.2,4.6-4.8
		C360.8,281.5,358.7,279.4,356.2,279.2z M223.4,292.1l-47.3-11.9l46-22.3c1.7,13.8,3.2,25.6,3.9,31.7
		C224.9,290.1,224,290.9,223.4,292.1z M236.4,340.6c-0.6-0.3-1.4-0.5-2.1-0.5c-1.4,0-2.6,0.5-3.4,1.4l-31-15.6l25.1-27.8
		c0.8,0.6,1.8,1,2.9,1c0.4,0,0.8-0.1,1.2-0.2c2.8,6,7.7,16.3,13.2,27.9L236.4,340.6z M242.9,324.8c-4.4-9.4-8.8-18.6-12.5-26.5
		c1-0.6,1.6-1.6,2-2.8l21.4,3L242.9,324.8z M283.6,301l-27.4-3.9l19.7-47.4l7.8,9.1V301z M285.3,301.2v-40.4l30.4,35.8l4.4,9.5
		L285.3,301.2z M321.7,305.8l-2-4.4l2.7,3.2C322.2,304.9,321.9,305.3,321.7,305.8z M324.8,312.4c0.2,0.1,0.5,0.1,0.8,0.2l0,1.5
		L324.8,312.4z M327.6,259.4l11,8c-0.5,0.7-0.8,1.6-0.8,2.6c0,2.6,2,4.6,4.5,4.8c-0.5,7.5-1,14.2-1.4,20.2l-11.5,9.2
		c-0.6-0.6-1.4-1-2.3-1.2L327.6,259.4z M338.1,339.7c-0.2,0-0.5,0-0.7,0.1l-10.2-22.1l0-5.2c2.2-0.5,3.8-2.4,3.8-4.7
		c0-0.8-0.2-1.5-0.5-2.1l10.3-8.3C339.1,321.7,338.4,333.7,338.1,339.7C338.1,339.7,338.1,339.7,338.1,339.7z M339.8,339.6
		c0.4-8.4,1.6-25.9,2.8-43.6l10.2-8.2c0.5,0.4,1,0.7,1.7,0.9L339.8,339.6z"/>
</g>
</svg>
