<?xml version="1.0" encoding="utf-8"?>
<!-- Generator: Adobe Illustrator 25.2.0, SVG Export Plug-In . SVG Version: 6.00 Build 0)  -->
<svg version="1.1" id="Слой_1" xmlns="http://www.w3.org/2000/svg" xmlns:xlink="http://www.w3.org/1999/xlink" x="0px" y="0px"
	 viewBox="0 0 841.9 595.3" style="enable-background:new 0 0 841.9 595.3;" xml:space="preserve">
<style type="text/css">
	.st0{fill:#D01B50;}
</style>
<path class="st0" d="M393.5,321.4v-43.7h7.2l15.8,20.3h0.1l15.9-20.3h7v43.7h-7.8v-30.7h-0.2l-15,19.1l-15-19.1h-0.2v30.7H393.5z"/>
<path class="st0" d="M446,299.5c0-12.5,10-22.6,23.3-22.6c13.3,0,23.3,10,23.3,22.6c0,12.5-10,22.6-23.3,22.6
	C456,322.1,446,312.1,446,299.5z M484.8,299.5c0-8.6-6.9-15.5-15.5-15.5c-8.6,0-15.5,6.9-15.5,15.5c0,8.6,6.9,15.5,15.5,15.5
	C477.9,315,484.8,308.2,484.8,299.5z"/>
<path class="st0" d="M496.9,315.3l5.1-4.9c2.1,2.2,5.5,4.7,10.7,4.7c5.2,0,8.1-2.9,8.1-6c0-8.9-22.5-3.8-22.5-19.7
	c0-6.9,5.9-12.4,15.2-12.4c6.9,0,11.8,3.2,14.2,5.8l-5.1,5c-1.7-1.6-4.8-3.8-8.9-3.8c-4.9,0-7.4,2.6-7.4,5.4
	c0,8.9,22.5,3.8,22.5,19.7c0,7-6,13-15.8,13C505,322.1,499.5,318.4,496.9,315.3z"/>
<path class="st0" d="M533.8,299.5c0-12.5,10-22.6,23.3-22.6c8.9,0,15,4.6,18.1,8.4l-5.4,4.6c-2.5-2.7-6.2-5.9-12.8-5.9
	c-8.7,0-15.5,6.9-15.5,15.5c0,8.6,6.8,15.5,15.5,15.5c6.5,0,10.5-3.2,13-6l5.4,4.6c-3.2,3.9-9.5,8.5-18.5,8.5
	C543.8,322.1,533.8,312.1,533.8,299.5z"/>
<path class="st0" d="M579.3,299.5c0-12.5,10-22.6,23.3-22.6c13.3,0,23.3,10,23.3,22.6c0,12.5-10,22.6-23.3,22.6
	C589.3,322.1,579.3,312.1,579.3,299.5z M618.1,299.5c0-8.6-6.9-15.5-15.5-15.5c-8.6,0-15.5,6.9-15.5,15.5c0,8.6,6.9,15.5,15.5,15.5
	C611.2,315,618.1,308.2,618.1,299.5z"/>
<path class="st0" d="M641.5,321.4l-14.3-43.7h8.2l10,31.4h0.2l9.9-31.4h7.4l9.9,31.4h0.2l9.9-31.4h8l-14.3,43.7H669l-10-31.9h-0.1
	l-10,31.9H641.5z"/>
<g>
	<path class="st0" d="M399.1,267.4v-15.8h-5.6v-3.1h14.6v3.1h-5.6v15.8H399.1z"/>
	<path class="st0" d="M411.2,267.4v-18.9h13.6v3.1h-10.2v4.6h8v3h-8v5.2h10.5v3.1H411.2z"/>
	<path class="st0" d="M427.3,257.9c0-5.4,4.3-9.8,10.1-9.8c3.9,0,6.5,2,7.9,3.6l-2.3,2c-1.1-1.2-2.7-2.5-5.5-2.5
		c-3.8,0-6.7,3-6.7,6.7c0,3.7,2.9,6.7,6.7,6.7c2.8,0,4.5-1.4,5.6-2.6l2.3,2c-1.4,1.7-4.1,3.7-8,3.7
		C431.6,267.7,427.3,263.3,427.3,257.9z"/>
	<path class="st0" d="M448.7,267.4v-18.9h3.4v7.8h8.9v-7.8h3.4v18.9H461v-8h-8.9v8H448.7z"/>
	<path class="st0" d="M469.5,267.4v-18.9h3l9.9,13.2h0.1v-13.2h3.4v18.9h-3.1l-9.9-13.2h-0.1v13.2H469.5z"/>
	<path class="st0" d="M489.9,257.9c0-5.4,4.3-9.8,10.1-9.8c5.8,0,10.1,4.3,10.1,9.8c0,5.4-4.3,9.8-10.1,9.8
		C494.3,267.7,489.9,263.3,489.9,257.9z M506.7,257.9c0-3.7-3-6.7-6.7-6.7c-3.7,0-6.7,3-6.7,6.7c0,3.7,3,6.7,6.7,6.7
		C503.8,264.6,506.7,261.6,506.7,257.9z"/>
	<path class="st0" d="M514.1,267.4v-18.9h7.8c3.8,0,6.5,2.7,6.5,6.2c0,3.5-2.7,6.2-6.5,6.2h-4.4v6.6H514.1z M517.5,257.7h4.3
		c1.8,0,3.2-1.4,3.2-3.1c0-1.8-1.4-3.1-3.2-3.1h-4.3V257.7z"/>
	<path class="st0" d="M530.7,257.9c0-5.4,4.3-9.8,10.1-9.8c5.8,0,10.1,4.3,10.1,9.8c0,5.4-4.3,9.8-10.1,9.8
		C535,267.7,530.7,263.3,530.7,257.9z M547.5,257.9c0-3.7-3-6.7-6.7-6.7c-3.7,0-6.7,3-6.7,6.7c0,3.7,3,6.7,6.7,6.7
		C544.5,264.6,547.5,261.6,547.5,257.9z"/>
	<path class="st0" d="M554.9,267.4v-18.9h3.4v15.8h9v3.1H554.9z"/>
	<path class="st0" d="M570.4,267.4v-18.9h3.4v18.9H570.4z"/>
	<path class="st0" d="M577.5,264.7l2.2-2.1c0.9,0.9,2.4,2.1,4.6,2.1c2.3,0,3.5-1.2,3.5-2.6c0-3.9-9.8-1.6-9.8-8.5
		c0-3,2.6-5.4,6.6-5.4c3,0,5.1,1.4,6.1,2.5l-2.2,2.2c-0.7-0.7-2.1-1.6-3.8-1.6c-2.1,0-3.2,1.1-3.2,2.3c0,3.9,9.7,1.6,9.7,8.5
		c0,3-2.6,5.6-6.8,5.6C581,267.7,578.6,266.1,577.5,264.7z"/>
</g>
<g>
	<path class="st0" d="M393.2,345.7l1-1c0.5,0.5,1.2,1,2.4,1c1.2,0,1.9-0.7,1.9-1.4c0-2.1-5-0.8-5-4.3c0-1.4,1.2-2.6,3.3-2.6
		c1.4,0,2.5,0.7,3,1.2l-1,1c-0.4-0.4-1.1-0.8-2-0.8c-1.2,0-1.8,0.6-1.8,1.3c0,2.1,5,0.8,5,4.3c0,1.5-1.3,2.8-3.4,2.8
		C394.9,347.1,393.8,346.4,393.2,345.7z"/>
	<path class="st0" d="M402.5,347v-9.5h3.8c1.8,0,3.2,1.4,3.2,3c0,1.7-1.4,3-3.2,3H404v3.4H402.5z M404,342.3h2.3
		c0.9,0,1.7-0.7,1.7-1.7c0-0.9-0.7-1.7-1.7-1.7H404V342.3z"/>
	<path class="st0" d="M411.7,347v-9.5h6.7v1.4h-5.2v2.5h4.1v1.4h-4.1v2.9h5.4v1.4H411.7z"/>
	<path class="st0" d="M420.2,342.3c0-2.7,2.2-4.9,5-4.9c1.9,0,3.2,1,3.9,1.8l-1,0.9c-0.5-0.6-1.4-1.3-2.8-1.3c-2,0-3.5,1.6-3.5,3.5
		c0,2,1.6,3.5,3.5,3.5c1.5,0,2.3-0.7,2.9-1.4l1,0.9c-0.7,0.9-2,1.9-3.9,1.9C422.4,347.1,420.2,345,420.2,342.3z"/>
	<path class="st0" d="M431.4,347v-9.5h1.5v9.5H431.4z"/>
	<path class="st0" d="M434.9,347l3.8-9.5h1.6l3.8,9.5h-1.6l-0.9-2.4h-4.2l-0.9,2.4H434.9z M437.9,343.2h3.1l-1.5-4h0L437.9,343.2z"
		/>
	<path class="st0" d="M446.1,347v-9.5h1.5v8.1h4.6v1.4H446.1z"/>
	<path class="st0" d="M461,347v-9.5h6.7v1.4h-5.2v2.5h4.1v1.4h-4.1v2.9h5.4v1.4H461z"/>
	<path class="st0" d="M469.5,342.3c0-2.7,2.2-4.9,5-4.9c1.9,0,3.2,1,3.9,1.8l-1,0.9c-0.5-0.6-1.4-1.3-2.8-1.3c-2,0-3.5,1.6-3.5,3.5
		c0,2,1.6,3.5,3.5,3.5c1.5,0,2.3-0.7,2.9-1.4l1,0.9c-0.7,0.9-2,1.9-3.9,1.9C471.7,347.1,469.5,345,469.5,342.3z"/>
	<path class="st0" d="M479.8,342.3c0-2.7,2.2-4.9,5-4.9s5,2.2,5,4.9c0,2.7-2.2,4.9-5,4.9S479.8,345,479.8,342.3z M488.3,342.3
		c0-2-1.6-3.5-3.5-3.5c-2,0-3.5,1.6-3.5,3.5c0,2,1.6,3.5,3.5,3.5C486.8,345.8,488.3,344.2,488.3,342.3z"/>
	<path class="st0" d="M492.4,347v-9.5h1.4l5.2,6.9h0v-6.9h1.5v9.5h-1.4l-5.2-6.9h0v6.9H492.4z"/>
	<path class="st0" d="M503,342.3c0-2.7,2.2-4.9,5-4.9s5,2.2,5,4.9c0,2.7-2.2,4.9-5,4.9S503,345,503,342.3z M511.5,342.3
		c0-2-1.6-3.5-3.5-3.5c-2,0-3.5,1.6-3.5,3.5c0,2,1.6,3.5,3.5,3.5C510,345.8,511.5,344.2,511.5,342.3z"/>
	<path class="st0" d="M515.6,347v-9.5h1.4l3.6,4.6h0l3.6-4.6h1.3v9.5H524v-6.9h-0.1l-3.4,4.4l-3.4-4.4h-0.1v6.9H515.6z"/>
	<path class="st0" d="M528.6,347v-9.5h1.5v9.5H528.6z"/>
	<path class="st0" d="M532.7,342.3c0-2.7,2.2-4.9,5-4.9c1.9,0,3.2,1,3.9,1.8l-1,0.9c-0.5-0.6-1.4-1.3-2.8-1.3c-2,0-3.5,1.6-3.5,3.5
		c0,2,1.6,3.5,3.5,3.5c1.5,0,2.3-0.7,2.9-1.4l1,0.9c-0.7,0.9-2,1.9-3.9,1.9C534.9,347.1,532.7,345,532.7,342.3z"/>
	<path class="st0" d="M550.1,347v-1.4l5.3-6.6h-5.1v-1.4h6.8v1.4l-5.3,6.6h5.4v1.4H550.1z"/>
	<path class="st0" d="M558.8,342.3c0-2.7,2.2-4.9,5-4.9s5,2.2,5,4.9c0,2.7-2.2,4.9-5,4.9S558.8,345,558.8,342.3z M567.3,342.3
		c0-2-1.6-3.5-3.5-3.5c-2,0-3.5,1.6-3.5,3.5c0,2,1.6,3.5,3.5,3.5C565.8,345.8,567.3,344.2,567.3,342.3z"/>
	<path class="st0" d="M571.4,347v-9.5h1.4l5.2,6.9h0v-6.9h1.5v9.5h-1.4l-5.2-6.9h0v6.9H571.4z"/>
	<path class="st0" d="M582.6,347v-9.5h6.7v1.4h-5.2v2.5h4.1v1.4h-4.1v2.9h5.4v1.4H582.6z"/>
</g>
<g>
	<polygon class="st0" points="151.1,263.3 151.1,265.1 172.1,248.4 169.9,248.4 	"/>
	<path class="st0" d="M347.6,278.8l-10.7-30.4h-1.8l10.8,30.6c-2,0.6-3.5,2.4-3.5,4.6c0,0.9,0.2,1.7,0.7,2.4l-9,7.2
		c0.4-6.5,0.9-13,1.3-19c2-0.6,3.5-2.4,3.5-4.6c0-2.6-2-4.6-4.5-4.8l-4.5-16.4h-1.7l4.5,16.5c-0.6,0.2-1.2,0.5-1.7,0.8l-12.1-8.8
		l0.1-8.5h-1.7l-0.1,7.3l-10-7.3h-2.8l12.8,9.4l-0.5,44.7c-0.6,0.1-1.3,0.3-1.8,0.6l-6.6-7.8l-21.6-46.9H285l19.4,42.2l-27.8-32.8
		v-9.4H275v7.4l-6.3-7.4h-2.9l-19.9,48l-21.9-3.1c-0.2-2.5-2.3-4.5-4.8-4.5c-1.1-8.7-2.5-20-4-32.2l17.2-8.3h-3.8l-13.6,6.6
		c-0.3-2.2-0.5-4.4-0.8-6.6h-1.7c0.3,2.5,0.6,4.9,0.9,7.3L165,279.1l-13.9-3.5v1.7l11.6,2.9l-11.6,5.6v1.8l14.1-6.8l49.1,12.3
		c0,0.2-0.1,0.4-0.1,0.6c0,1,0.3,1.9,0.8,2.7l-25.5,28.2l-38.5-19.5v1.9l37.4,18.9l-19,21h2.2l18.3-20.3l31.2,15.7
		c-0.3,0.6-0.4,1.2-0.4,1.9l-21.5,2.7h13.7l8.1-1c0.1,0.4,0.3,0.7,0.5,1h8.3l-0.1-0.1c0.4-0.7,0.7-1.5,0.7-2.4
		c0-1.3-0.5-2.4-1.3-3.3l5.3-12.8c2.8,6,5.8,12.3,8.7,18.6h1.8c-3.2-6.7-6.5-13.7-9.7-20.6l11.6-28l28.1,4v44.7h1.7v-44.5l35.6,5
		l0.9,2c0,0,0,0,0,0l0.9,2c-7,11.1-15,23.7-22.5,35.5h2c5.8-9.2,12.9-20.2,21.3-33.7l2,4.3l0.3,29.3h1.7l-0.2-25.7l8.5,18.5
		c-1.5,0.8-2.6,2.4-2.6,4.3c0,1.1,0.4,2.1,1,2.9h7.7c0.6-0.8,1-1.8,1-2.9c0-1.5-0.7-2.8-1.8-3.7l15-51.9c2.6-0.1,4.6-2.2,4.6-4.8
		C352.1,281,350.1,278.9,347.6,278.8z M214.8,291.6l-47.3-11.9l46-22.3c1.7,13.8,3.2,25.6,3.9,31.7
		C216.3,289.6,215.3,290.5,214.8,291.6z M227.7,340.1c-0.6-0.3-1.4-0.5-2.1-0.5c-1.4,0-2.6,0.5-3.4,1.4l-31-15.6l25.1-27.8
		c0.8,0.6,1.8,1,2.9,1c0.4,0,0.8-0.1,1.2-0.2c2.8,6,7.7,16.3,13.2,27.9L227.7,340.1z M234.3,324.3c-4.4-9.4-8.8-18.6-12.5-26.5
		c1-0.6,1.6-1.6,2-2.8l21.4,3L234.3,324.3z M275,300.5l-27.4-3.9l19.7-47.4l7.8,9.1V300.5z M276.6,300.8v-40.4l30.4,35.8l4.4,9.5
		L276.6,300.8z M313.1,305.3l-2-4.4l2.7,3.2C313.5,304.5,313.3,304.9,313.1,305.3z M316.1,311.9c0.2,0.1,0.5,0.1,0.8,0.2l0,1.5
		L316.1,311.9z M319,259l11,8c-0.5,0.7-0.8,1.6-0.8,2.6c0,2.6,2,4.6,4.5,4.8c-0.5,7.5-1,14.2-1.4,20.2l-11.5,9.2
		c-0.6-0.6-1.4-1-2.3-1.2L319,259z M329.5,339.2c-0.2,0-0.5,0-0.7,0.1l-10.2-22.1l0-5.2c2.2-0.5,3.8-2.4,3.8-4.7
		c0-0.8-0.2-1.5-0.5-2.1l10.3-8.3C330.5,321.2,329.7,333.3,329.5,339.2C329.5,339.2,329.5,339.2,329.5,339.2z M331.2,339.1
		c0.4-8.4,1.6-25.9,2.8-43.6l10.2-8.2c0.5,0.4,1,0.7,1.7,0.9L331.2,339.1z"/>
</g>
</svg>
